<svg width="55" height="56" viewBox="0 0 55 56" fill="none" xmlns="http://www.w3.org/2000/svg">
<rect y="0.5" width="55" height="55" rx="24" fill="#E9FAF0"/>
<path fill-rule="evenodd" clip-rule="evenodd" d="M12.2335 26.0954C13.1488 20.7777 16.8155 16.4163 21.6677 14.6209L21.4394 15.021C21.1223 15.5869 21.3106 16.3089 21.86 16.6309C22.0414 16.7382 22.2395 16.7968 22.4347 16.7968C22.8318 16.7968 23.2182 16.5821 23.4309 16.2016L25.0164 13.3915C25.1686 13.1183 25.2106 12.7963 25.1315 12.4939C25.0525 12.1914 24.8593 11.9377 24.5959 11.7816L21.8502 10.1619C21.2999 9.83016 20.5974 10.0253 20.2793 10.5912C19.9622 11.1474 20.1505 11.8694 20.7008 12.2012L20.9867 12.367C15.3217 14.4258 11.0353 19.4898 9.96889 25.6856C9.45371 28.681 9.71618 31.7643 10.729 34.6134C10.8987 35.0915 11.3388 35.3842 11.8091 35.3842C11.9398 35.3842 12.0725 35.3647 12.2023 35.3159C12.7994 35.0915 13.1068 34.4182 12.8892 33.8035C12.015 31.3447 11.7886 28.681 12.2335 26.0954ZM45.1338 32.1546C44.8167 31.5887 44.1132 31.3935 43.5629 31.7253L43.1852 31.9497C43.1918 31.9131 43.1988 31.8782 43.2057 31.8436L43.2057 31.8436L43.2058 31.8433C43.2155 31.7949 43.2251 31.7471 43.2331 31.696C44.0166 27.1394 43.0233 22.5535 40.4357 18.7677C37.8481 14.9722 33.9764 12.4451 29.534 11.645C28.9086 11.5377 28.3124 11.9572 28.2021 12.6012C28.0919 13.2452 28.5095 13.8501 29.1349 13.9672C32.9724 14.66 36.3172 16.8456 38.5516 20.1142C40.783 23.3829 41.6417 27.3345 40.9723 31.2667L40.8045 30.9642C40.4864 30.3983 39.7839 30.2031 39.2336 30.5349C38.6833 30.8569 38.495 31.5789 38.8121 32.1448L40.3967 34.9549C40.5498 35.2281 40.8006 35.4232 41.0953 35.5013C41.1938 35.5306 41.2933 35.5403 41.3929 35.5403C41.5929 35.5403 41.7919 35.4915 41.9676 35.3842L44.7132 33.7645C45.2626 33.4328 45.4518 32.7205 45.1338 32.1546ZM37.7788 38.3016C38.1876 37.804 38.9126 37.7357 39.3995 38.1552C39.8854 38.5748 39.9478 39.3163 39.54 39.814C36.3025 43.7656 31.5205 46 26.5805 46C25.6126 46 24.6388 45.9122 23.6689 45.7366C20.7135 45.1999 17.961 43.8632 15.6925 41.902V42.3118C15.6925 42.9655 15.1773 43.4924 14.5421 43.4924C13.9069 43.4924 13.3927 42.9655 13.3927 42.3118L13.3937 39.0627C13.3937 39.0578 13.3939 39.0553 13.3942 39.0529C13.3944 39.0505 13.3946 39.048 13.3946 39.0431L13.395 39.0321C13.3959 39.0045 13.3969 38.9713 13.3995 38.9456C13.4005 38.9456 13.4005 38.9456 13.4005 38.9358C13.4298 38.6431 13.5654 38.3601 13.8054 38.1552C14.0503 37.9406 14.3567 37.8528 14.6514 37.882H17.7132C18.3484 37.882 18.8626 38.4089 18.8626 39.0627C18.8626 39.7164 18.3484 40.2433 17.7132 40.2433H17.3424C19.2704 41.863 21.5858 42.9655 24.068 43.4143C29.1808 44.3413 34.434 42.3801 37.7788 38.3016Z" fill="#1ECE7A"/>
<mask id="mask0" mask-type="alpha" maskUnits="userSpaceOnUse" x="9" y="10" width="37" height="36">
<path fill-rule="evenodd" clip-rule="evenodd" d="M12.2335 26.0954C13.1488 20.7777 16.8155 16.4163 21.6677 14.6209L21.4394 15.021C21.1223 15.5869 21.3106 16.3089 21.86 16.6309C22.0414 16.7382 22.2395 16.7968 22.4347 16.7968C22.8318 16.7968 23.2182 16.5821 23.4309 16.2016L25.0164 13.3915C25.1686 13.1183 25.2106 12.7963 25.1315 12.4939C25.0525 12.1914 24.8593 11.9377 24.5959 11.7816L21.8502 10.1619C21.2999 9.83016 20.5974 10.0253 20.2793 10.5912C19.9622 11.1474 20.1505 11.8694 20.7008 12.2012L20.9867 12.367C15.3217 14.4258 11.0353 19.4898 9.96889 25.6856C9.45371 28.681 9.71618 31.7643 10.729 34.6134C10.8987 35.0915 11.3388 35.3842 11.8091 35.3842C11.9398 35.3842 12.0725 35.3647 12.2023 35.3159C12.7994 35.0915 13.1068 34.4182 12.8892 33.8035C12.015 31.3447 11.7886 28.681 12.2335 26.0954ZM45.1338 32.1546C44.8167 31.5887 44.1132 31.3935 43.5629 31.7253L43.1852 31.9497C43.1918 31.9131 43.1988 31.8782 43.2057 31.8436L43.2057 31.8436L43.2058 31.8433C43.2155 31.7949 43.2251 31.7471 43.2331 31.696C44.0166 27.1394 43.0233 22.5535 40.4357 18.7677C37.8481 14.9722 33.9764 12.4451 29.534 11.645C28.9086 11.5377 28.3124 11.9572 28.2021 12.6012C28.0919 13.2452 28.5095 13.8501 29.1349 13.9672C32.9724 14.66 36.3172 16.8456 38.5516 20.1142C40.783 23.3829 41.6417 27.3345 40.9723 31.2667L40.8045 30.9642C40.4864 30.3983 39.7839 30.2031 39.2336 30.5349C38.6833 30.8569 38.495 31.5789 38.8121 32.1448L40.3967 34.9549C40.5498 35.2281 40.8006 35.4232 41.0953 35.5013C41.1938 35.5306 41.2933 35.5403 41.3929 35.5403C41.5929 35.5403 41.7919 35.4915 41.9676 35.3842L44.7132 33.7645C45.2626 33.4328 45.4518 32.7205 45.1338 32.1546ZM37.7788 38.3016C38.1876 37.804 38.9126 37.7357 39.3995 38.1552C39.8854 38.5748 39.9478 39.3163 39.54 39.814C36.3025 43.7656 31.5205 46 26.5805 46C25.6126 46 24.6388 45.9122 23.6689 45.7366C20.7135 45.1999 17.961 43.8632 15.6925 41.902V42.3118C15.6925 42.9655 15.1773 43.4924 14.5421 43.4924C13.9069 43.4924 13.3927 42.9655 13.3927 42.3118L13.3937 39.0627C13.3937 39.0578 13.3939 39.0553 13.3942 39.0529C13.3944 39.0505 13.3946 39.048 13.3946 39.0431L13.395 39.0321C13.3959 39.0045 13.3969 38.9713 13.3995 38.9456C13.4005 38.9456 13.4005 38.9456 13.4005 38.9358C13.4298 38.6431 13.5654 38.3601 13.8054 38.1552C14.0503 37.9406 14.3567 37.8528 14.6514 37.882H17.7132C18.3484 37.882 18.8626 38.4089 18.8626 39.0627C18.8626 39.7164 18.3484 40.2433 17.7132 40.2433H17.3424C19.2704 41.863 21.5858 42.9655 24.068 43.4143C29.1808 44.3413 34.434 42.3801 37.7788 38.3016Z" fill="white"/>
</mask>
<g mask="url(#mask0)">
<rect x="9.5" y="10" width="36" height="36" fill="#3ACF6E"/>
</g>
</svg>
