<svg width="55" height="55" viewBox="0 0 55 55" fill="none" xmlns="http://www.w3.org/2000/svg">
<rect width="55" height="55" rx="24" fill="#FCF3F4"/>
<path fill-rule="evenodd" clip-rule="evenodd" d="M27.5001 9.5C22.2776 9.5 17.3449 11.9878 14.0552 16.0073V14.8463C14.0552 14.261 13.5947 13.7927 13.0259 13.7927C12.4571 13.7927 11.9966 14.261 11.9966 14.8463V19.3244C11.9966 20.3293 13.2649 20.4756 13.0259 20.378C13.0454 20.378 13.0659 20.378 13.0854 20.378H13.0893L17.2054 20.1146C17.7732 20.0756 18.2045 19.578 18.1684 19.0024C18.1332 18.4171 17.6386 17.978 17.0786 18.0073L14.9937 18.1439C17.8815 14.1146 22.5537 11.6073 27.5001 11.6073C36.0113 11.6073 43.0035 18.778 43.0035 27.5C43.0035 28.0854 43.463 28.5537 44.0318 28.5537C44.6006 28.5537 45.061 28.0854 45.061 27.5C45.061 17.6171 37.1459 9.5 27.5001 9.5ZM34.6757 27.2561C34.5937 26.9049 34.3381 26.6122 33.9996 26.5049L28.9508 24.778L32.5361 17.4317C32.7615 16.9634 32.6269 16.4073 32.2181 16.0951C31.8074 15.8024 31.2444 15.8415 30.8883 16.2122L20.5986 26.7585C20.3469 27.0122 20.2435 27.3829 20.3244 27.7439C20.4074 28.0951 20.662 28.3878 21.0005 28.5049L26.0493 30.222L22.464 37.578C22.2386 38.0366 22.3732 38.6024 22.782 38.9049C23.1918 39.1976 23.7537 39.1585 24.1118 38.7878L34.4015 28.2415C34.6542 27.9878 34.7576 27.6171 34.6757 27.2561ZM37.7947 34.8854L41.9108 34.622C42.461 34.5927 43.0035 35.0902 43.0035 35.6756V40.1537C43.0035 40.739 42.543 41.2073 41.9742 41.2073C41.4054 41.2073 40.9449 40.739 40.9449 40.1537V38.9927C37.6552 43.0122 32.7225 45.5 27.5001 45.5C17.8542 45.5 9.93909 37.3829 9.93909 27.5C9.93909 26.9146 10.3996 26.4463 10.9684 26.4463C11.5371 26.4463 11.9966 26.9146 11.9966 27.5C11.9966 36.222 18.9888 43.3927 27.5001 43.3927C32.4464 43.3927 37.1186 40.8854 40.0064 36.8561L37.9215 36.9927C37.3732 37.0219 36.8669 36.5829 36.8318 35.9976C36.7957 35.422 37.2269 34.9244 37.7947 34.8854Z" fill="#D62642"/>
<mask id="mask0" mask-type="alpha" maskUnits="userSpaceOnUse" x="9" y="9" width="37" height="37">
<path fill-rule="evenodd" clip-rule="evenodd" d="M27.5001 9.5C22.2776 9.5 17.3449 11.9878 14.0552 16.0073V14.8463C14.0552 14.261 13.5947 13.7927 13.0259 13.7927C12.4571 13.7927 11.9966 14.261 11.9966 14.8463V19.3244C11.9966 20.3293 13.2649 20.4756 13.0259 20.378C13.0454 20.378 13.0659 20.378 13.0854 20.378H13.0893L17.2054 20.1146C17.7732 20.0756 18.2045 19.578 18.1684 19.0024C18.1332 18.4171 17.6386 17.978 17.0786 18.0073L14.9937 18.1439C17.8815 14.1146 22.5537 11.6073 27.5001 11.6073C36.0113 11.6073 43.0035 18.778 43.0035 27.5C43.0035 28.0854 43.463 28.5537 44.0318 28.5537C44.6006 28.5537 45.061 28.0854 45.061 27.5C45.061 17.6171 37.1459 9.5 27.5001 9.5ZM34.6757 27.2561C34.5937 26.9049 34.3381 26.6122 33.9996 26.5049L28.9508 24.778L32.5361 17.4317C32.7615 16.9634 32.6269 16.4073 32.2181 16.0951C31.8074 15.8024 31.2444 15.8415 30.8883 16.2122L20.5986 26.7585C20.3469 27.0122 20.2435 27.3829 20.3244 27.7439C20.4074 28.0951 20.662 28.3878 21.0005 28.5049L26.0493 30.222L22.464 37.578C22.2386 38.0366 22.3732 38.6024 22.782 38.9049C23.1918 39.1976 23.7537 39.1585 24.1118 38.7878L34.4015 28.2415C34.6542 27.9878 34.7576 27.6171 34.6757 27.2561ZM37.7947 34.8854L41.9108 34.622C42.461 34.5927 43.0035 35.0902 43.0035 35.6756V40.1537C43.0035 40.739 42.543 41.2073 41.9742 41.2073C41.4054 41.2073 40.9449 40.739 40.9449 40.1537V38.9927C37.6552 43.0122 32.7225 45.5 27.5001 45.5C17.8542 45.5 9.93909 37.3829 9.93909 27.5C9.93909 26.9146 10.3996 26.4463 10.9684 26.4463C11.5371 26.4463 11.9966 26.9146 11.9966 27.5C11.9966 36.222 18.9888 43.3927 27.5001 43.3927C32.4464 43.3927 37.1186 40.8854 40.0064 36.8561L37.9215 36.9927C37.3732 37.0219 36.8669 36.5829 36.8318 35.9976C36.7957 35.422 37.2269 34.9244 37.7947 34.8854Z" fill="white"/>
</mask>
<g mask="url(#mask0)">
<rect x="9.5" y="9.5" width="36" height="36" fill="#D12940"/>
</g>
</svg>
