<svg width="55" height="56" viewBox="0 0 55 56" fill="none" xmlns="http://www.w3.org/2000/svg">
<rect y="0.5" width="55" height="55" rx="24" fill="#FCF3F4"/>
<path fill-rule="evenodd" clip-rule="evenodd" d="M36.7349 13.9914L27.733 10.0514C27.58 9.9814 27.406 9.9814 27.253 10.0514L18.251 13.9914C18.033 14.0914 17.891 14.3014 17.891 14.5414V23.9613C17.894 26.0813 18.912 28.0613 20.628 29.3013L26.849 33.7912C27.233 34.0712 27.753 34.0712 28.137 33.7912L34.3589 29.3013C36.0739 28.0613 37.0919 26.0813 37.0949 23.9613V14.5414C37.0949 14.3014 36.9539 14.0914 36.7349 13.9914ZM35.8949 23.9613C35.8919 25.6913 35.0599 27.3213 33.6559 28.3313L27.493 32.7812L21.33 28.3313C19.926 27.3213 19.094 25.6913 19.091 23.9613V14.9314L27.493 11.2514L35.8949 14.9314V23.9613ZM27.253 12.6714L20.652 15.5614C20.433 15.6614 20.292 15.8714 20.292 16.1114V23.9613C20.294 25.3113 20.941 26.5713 22.032 27.3613L27.142 31.0413C27.352 31.2013 27.635 31.2013 27.845 31.0413L32.9549 27.3613C34.0459 26.5713 34.6929 25.3113 34.6949 23.9613V16.1114C34.6949 15.8714 34.5539 15.6614 34.3349 15.5614L27.734 12.6714C27.581 12.6014 27.407 12.6014 27.253 12.6714ZM33.4949 16.5014V23.9613C33.4929 24.9213 33.0309 25.8213 32.2529 26.3913L27.494 29.8213L22.735 26.3913C21.956 25.8213 21.494 24.9213 21.492 23.9613V16.5014L27.494 13.8814L33.4949 16.5014ZM13.1641 26.8913L14.4621 29.9213C15.473 29.2513 16.804 29.3213 17.741 30.0913C18.751 31.0213 19.913 31.7613 21.177 32.2913C21.972 32.5813 22.667 33.0812 23.177 33.7512C24.047 34.8812 24.511 36.2612 24.493 37.6812V38.8012C25.156 38.8012 25.693 39.3412 25.693 40.0012V44.8012C25.693 45.4612 25.156 46.0012 24.493 46.0012H17.891C17.228 46.0012 16.691 45.4612 16.691 44.8012V40.0012C16.692 39.7012 16.808 39.4012 17.016 39.1812L13.3181 35.4912C12.7741 34.9412 12.3321 34.3112 12.0151 33.6012L9.66309 28.4313C9.38709 27.8113 9.46509 27.0813 9.86909 26.5313C10.2721 25.9813 10.9401 25.6813 11.6191 25.7613C12.2991 25.8313 12.8871 26.2613 13.1641 26.8913ZM17.891 44.8012H24.493V40.0012H17.891V44.8012ZM23.292 37.6812C23.311 36.5312 22.94 35.4112 22.24 34.5012C21.873 34.0112 21.372 33.6412 20.797 33.4312C19.387 32.8612 18.09 32.0413 16.9681 31.0113C16.4071 30.5513 15.6011 30.5313 15.0251 30.9813C15.2411 31.3013 15.4891 31.6013 15.7641 31.8813L18.506 34.6212C18.662 34.7712 18.724 34.9912 18.67 35.2012C18.615 35.4112 18.451 35.5812 18.241 35.6312C18.031 35.6912 17.808 35.6212 17.657 35.4712L14.9161 32.7313C14.2731 32.0813 13.7591 31.3313 13.4021 30.4913L12.0601 27.3613C11.9481 27.1013 11.6901 26.9313 11.4051 26.9313C11.1621 26.9313 10.9361 27.0513 10.8051 27.2513C10.6741 27.4613 10.6551 27.7213 10.7551 27.9413L13.1071 33.1112C13.3651 33.6812 13.7241 34.2012 14.1661 34.6412L18.33 38.8012H23.292V37.6812ZM22.693 41.8012H22.093C21.761 41.8012 21.493 42.0712 21.493 42.4012C21.493 42.7312 21.761 43.0012 22.093 43.0012H22.693C23.024 43.0012 23.293 42.7312 23.293 42.4012C23.293 42.0712 23.024 41.8012 22.693 41.8012ZM45.3239 28.4313L42.9729 33.6012C42.6549 34.3112 42.2139 34.9412 41.6699 35.4912L37.9709 39.1812C38.1789 39.4012 38.2959 39.7012 38.2959 40.0012V44.8012C38.2959 45.4612 37.7589 46.0012 37.0959 46.0012H30.495C29.832 46.0012 29.294 45.4612 29.294 44.8012V40.0012C29.294 39.3412 29.832 38.8012 30.495 38.8012V37.6812C30.476 36.2612 30.94 34.8812 31.8099 33.7512C32.3199 33.0812 33.0159 32.5713 33.8099 32.2913C35.0739 31.7613 36.2369 31.0213 37.2459 30.0913C38.1819 29.3113 39.5139 29.2413 40.5289 29.9113L41.8239 26.8913C42.0929 26.2513 42.6839 25.8113 43.3709 25.7313C44.0569 25.6513 44.7319 25.9513 45.1369 26.5113C45.5419 27.0713 45.6139 27.8013 45.3239 28.4313ZM30.495 44.8012H37.0959V40.0012H30.495V44.8012ZM31.6949 38.8012H36.6569L40.8189 34.6412C41.2609 34.2012 41.6199 33.6812 41.8779 33.1112L44.2299 27.9413C44.3299 27.7213 44.3109 27.4613 44.1799 27.2613C44.0489 27.0513 43.8229 26.9313 43.5799 26.9313C43.2949 26.9313 43.0369 27.1013 42.9249 27.3613L41.5829 30.4913C41.2259 31.3313 40.7119 32.0813 40.0689 32.7313L37.3279 35.4712C37.0919 35.6912 36.7179 35.6912 36.4859 35.4612C36.2549 35.2312 36.2519 34.8512 36.4789 34.6212L39.2209 31.8813C39.4979 31.6013 39.7469 31.3013 39.9639 30.9713C39.3859 30.5313 38.5769 30.5413 38.0169 31.0113C36.8949 32.0413 35.5979 32.8612 34.1869 33.4312C33.6139 33.6412 33.1129 34.0112 32.7469 34.5012C32.0479 35.4112 31.6769 36.5312 31.6949 37.6812V38.8012ZM32.8949 41.8012H32.2949C31.9629 41.8012 31.6949 42.0712 31.6949 42.4012C31.6949 42.7312 31.9629 43.0012 32.2949 43.0012H32.8949C33.2259 43.0012 33.4949 42.7312 33.4949 42.4012C33.4949 42.0712 33.2259 41.8012 32.8949 41.8012ZM23.412 22.8413C23.611 22.5713 23.987 22.5213 24.252 22.7213L26.145 24.1413L30.5939 17.4714C30.7129 17.2914 30.9179 17.1914 31.1319 17.2014C31.3459 17.2114 31.5369 17.3414 31.6319 17.5314C31.7269 17.7313 31.7119 17.9513 31.5929 18.1313L26.792 25.3313C26.701 25.4713 26.557 25.5613 26.394 25.5913C26.361 25.6013 26.327 25.6013 26.293 25.6013C26.163 25.6013 26.036 25.5613 25.933 25.4813L23.532 23.6813C23.267 23.4813 23.213 23.1013 23.412 22.8413Z" fill="#1ECE7A"/>
<mask id="mask0" mask-type="alpha" maskUnits="userSpaceOnUse" x="9" y="9" width="37" height="38">
<path fill-rule="evenodd" clip-rule="evenodd" d="M36.7349 13.9914L27.733 10.0514C27.58 9.9814 27.406 9.9814 27.253 10.0514L18.251 13.9914C18.033 14.0914 17.891 14.3014 17.891 14.5414V23.9613C17.894 26.0813 18.912 28.0613 20.628 29.3013L26.849 33.7912C27.233 34.0712 27.753 34.0712 28.137 33.7912L34.3589 29.3013C36.0739 28.0613 37.0919 26.0813 37.0949 23.9613V14.5414C37.0949 14.3014 36.9539 14.0914 36.7349 13.9914ZM35.8949 23.9613C35.8919 25.6913 35.0599 27.3213 33.6559 28.3313L27.493 32.7812L21.33 28.3313C19.926 27.3213 19.094 25.6913 19.091 23.9613V14.9314L27.493 11.2514L35.8949 14.9314V23.9613ZM27.253 12.6714L20.652 15.5614C20.433 15.6614 20.292 15.8714 20.292 16.1114V23.9613C20.294 25.3113 20.941 26.5713 22.032 27.3613L27.142 31.0413C27.352 31.2013 27.635 31.2013 27.845 31.0413L32.9549 27.3613C34.0459 26.5713 34.6929 25.3113 34.6949 23.9613V16.1114C34.6949 15.8714 34.5539 15.6614 34.3349 15.5614L27.734 12.6714C27.581 12.6014 27.407 12.6014 27.253 12.6714ZM33.4949 16.5014V23.9613C33.4929 24.9213 33.0309 25.8213 32.2529 26.3913L27.494 29.8213L22.735 26.3913C21.956 25.8213 21.494 24.9213 21.492 23.9613V16.5014L27.494 13.8814L33.4949 16.5014ZM13.1641 26.8913L14.4621 29.9213C15.473 29.2513 16.804 29.3213 17.741 30.0913C18.751 31.0213 19.913 31.7613 21.177 32.2913C21.972 32.5813 22.667 33.0812 23.177 33.7512C24.047 34.8812 24.511 36.2612 24.493 37.6812V38.8012C25.156 38.8012 25.693 39.3412 25.693 40.0012V44.8012C25.693 45.4612 25.156 46.0012 24.493 46.0012H17.891C17.228 46.0012 16.691 45.4612 16.691 44.8012V40.0012C16.692 39.7012 16.808 39.4012 17.016 39.1812L13.3181 35.4912C12.7741 34.9412 12.3321 34.3112 12.0151 33.6012L9.66309 28.4313C9.38709 27.8113 9.46509 27.0813 9.86909 26.5313C10.2721 25.9813 10.9401 25.6813 11.6191 25.7613C12.2991 25.8313 12.8871 26.2613 13.1641 26.8913ZM17.891 44.8012H24.493V40.0012H17.891V44.8012ZM23.292 37.6812C23.311 36.5312 22.94 35.4112 22.24 34.5012C21.873 34.0112 21.372 33.6412 20.797 33.4312C19.387 32.8612 18.09 32.0413 16.9681 31.0113C16.4071 30.5513 15.6011 30.5313 15.0251 30.9813C15.2411 31.3013 15.4891 31.6013 15.7641 31.8813L18.506 34.6212C18.662 34.7712 18.724 34.9912 18.67 35.2012C18.615 35.4112 18.451 35.5812 18.241 35.6312C18.031 35.6912 17.808 35.6212 17.657 35.4712L14.9161 32.7313C14.2731 32.0813 13.7591 31.3313 13.4021 30.4913L12.0601 27.3613C11.9481 27.1013 11.6901 26.9313 11.4051 26.9313C11.1621 26.9313 10.9361 27.0513 10.8051 27.2513C10.6741 27.4613 10.6551 27.7213 10.7551 27.9413L13.1071 33.1112C13.3651 33.6812 13.7241 34.2012 14.1661 34.6412L18.33 38.8012H23.292V37.6812ZM22.693 41.8012H22.093C21.761 41.8012 21.493 42.0712 21.493 42.4012C21.493 42.7312 21.761 43.0012 22.093 43.0012H22.693C23.024 43.0012 23.293 42.7312 23.293 42.4012C23.293 42.0712 23.024 41.8012 22.693 41.8012ZM45.3239 28.4313L42.9729 33.6012C42.6549 34.3112 42.2139 34.9412 41.6699 35.4912L37.9709 39.1812C38.1789 39.4012 38.2959 39.7012 38.2959 40.0012V44.8012C38.2959 45.4612 37.7589 46.0012 37.0959 46.0012H30.495C29.832 46.0012 29.294 45.4612 29.294 44.8012V40.0012C29.294 39.3412 29.832 38.8012 30.495 38.8012V37.6812C30.476 36.2612 30.94 34.8812 31.8099 33.7512C32.3199 33.0812 33.0159 32.5713 33.8099 32.2913C35.0739 31.7613 36.2369 31.0213 37.2459 30.0913C38.1819 29.3113 39.5139 29.2413 40.5289 29.9113L41.8239 26.8913C42.0929 26.2513 42.6839 25.8113 43.3709 25.7313C44.0569 25.6513 44.7319 25.9513 45.1369 26.5113C45.5419 27.0713 45.6139 27.8013 45.3239 28.4313ZM30.495 44.8012H37.0959V40.0012H30.495V44.8012ZM31.6949 38.8012H36.6569L40.8189 34.6412C41.2609 34.2012 41.6199 33.6812 41.8779 33.1112L44.2299 27.9413C44.3299 27.7213 44.3109 27.4613 44.1799 27.2613C44.0489 27.0513 43.8229 26.9313 43.5799 26.9313C43.2949 26.9313 43.0369 27.1013 42.9249 27.3613L41.5829 30.4913C41.2259 31.3313 40.7119 32.0813 40.0689 32.7313L37.3279 35.4712C37.0919 35.6912 36.7179 35.6912 36.4859 35.4612C36.2549 35.2312 36.2519 34.8512 36.4789 34.6212L39.2209 31.8813C39.4979 31.6013 39.7469 31.3013 39.9639 30.9713C39.3859 30.5313 38.5769 30.5413 38.0169 31.0113C36.8949 32.0413 35.5979 32.8612 34.1869 33.4312C33.6139 33.6412 33.1129 34.0112 32.7469 34.5012C32.0479 35.4112 31.6769 36.5312 31.6949 37.6812V38.8012ZM32.8949 41.8012H32.2949C31.9629 41.8012 31.6949 42.0712 31.6949 42.4012C31.6949 42.7312 31.9629 43.0012 32.2949 43.0012H32.8949C33.2259 43.0012 33.4949 42.7312 33.4949 42.4012C33.4949 42.0712 33.2259 41.8012 32.8949 41.8012ZM23.412 22.8413C23.611 22.5713 23.987 22.5213 24.252 22.7213L26.145 24.1413L30.5939 17.4714C30.7129 17.2914 30.9179 17.1914 31.1319 17.2014C31.3459 17.2114 31.5369 17.3414 31.6319 17.5314C31.7269 17.7313 31.7119 17.9513 31.5929 18.1313L26.792 25.3313C26.701 25.4713 26.557 25.5613 26.394 25.5913C26.361 25.6013 26.327 25.6013 26.293 25.6013C26.163 25.6013 26.036 25.5613 25.933 25.4813L23.532 23.6813C23.267 23.4813 23.213 23.1013 23.412 22.8413Z" fill="white"/>
</mask>
<g mask="url(#mask0)">
<rect x="9.5" y="10" width="36" height="36" fill="#D12940"/>
</g>
</svg>
