<svg width="241" height="349" viewBox="0 0 241 349" fill="none" xmlns="http://www.w3.org/2000/svg">
<g opacity="0.4">
<circle opacity="0.4" cx="2.58997" cy="165.907" r="2.09302" transform="rotate(-90 2.58997 165.907)" fill="#262B35"/>
<circle opacity="0.4" cx="20.73" cy="165.907" r="2.09302" transform="rotate(-90 20.73 165.907)" fill="#262B35"/>
<circle opacity="0.4" cx="38.87" cy="165.907" r="2.09302" transform="rotate(-90 38.87 165.907)" fill="#262B35"/>
<circle opacity="0.4" cx="57.01" cy="165.907" r="2.09302" transform="rotate(-90 57.01 165.907)" fill="#262B35"/>
<circle opacity="0.4" cx="75.1499" cy="165.907" r="2.09302" transform="rotate(-90 75.1499 165.907)" fill="#262B35"/>
<circle opacity="0.4" cx="93.2899" cy="165.907" r="2.09302" transform="rotate(-90 93.2899 165.907)" fill="#262B35"/>
<circle opacity="0.4" cx="111.43" cy="165.907" r="2.09302" transform="rotate(-90 111.43 165.907)" fill="#262B35"/>
<circle opacity="0.4" cx="129.57" cy="165.907" r="2.09302" transform="rotate(-90 129.57 165.907)" fill="#262B35"/>
<circle opacity="0.4" cx="147.71" cy="165.907" r="2.09302" transform="rotate(-90 147.71 165.907)" fill="#262B35"/>
<circle opacity="0.4" cx="165.85" cy="165.907" r="2.09302" transform="rotate(-90 165.85 165.907)" fill="#262B35"/>
<circle opacity="0.4" cx="183.99" cy="165.907" r="2.09302" transform="rotate(-90 183.99 165.907)" fill="#262B35"/>
<circle opacity="0.4" cx="202.13" cy="165.907" r="2.09302" transform="rotate(-90 202.13 165.907)" fill="#262B35"/>
<circle opacity="0.4" cx="220.27" cy="165.907" r="2.09302" transform="rotate(-90 220.27 165.907)" fill="#262B35"/>
<circle opacity="0.4" cx="238.41" cy="165.907" r="2.09302" transform="rotate(-90 238.41 165.907)" fill="#262B35"/>
<circle opacity="0.4" cx="2.58997" cy="147.767" r="2.09302" transform="rotate(-90 2.58997 147.767)" fill="#262B35"/>
<circle opacity="0.4" cx="20.73" cy="147.767" r="2.09302" transform="rotate(-90 20.73 147.767)" fill="#262B35"/>
<circle opacity="0.4" cx="38.87" cy="147.767" r="2.09302" transform="rotate(-90 38.87 147.767)" fill="#262B35"/>
<circle opacity="0.4" cx="57.01" cy="147.767" r="2.09302" transform="rotate(-90 57.01 147.767)" fill="#262B35"/>
<circle opacity="0.4" cx="75.1499" cy="147.767" r="2.09302" transform="rotate(-90 75.1499 147.767)" fill="#262B35"/>
<circle opacity="0.4" cx="93.2899" cy="147.767" r="2.09302" transform="rotate(-90 93.2899 147.767)" fill="#262B35"/>
<circle opacity="0.4" cx="111.43" cy="147.767" r="2.09302" transform="rotate(-90 111.43 147.767)" fill="#262B35"/>
<circle opacity="0.4" cx="129.57" cy="147.767" r="2.09302" transform="rotate(-90 129.57 147.767)" fill="#262B35"/>
<circle opacity="0.4" cx="147.71" cy="147.767" r="2.09302" transform="rotate(-90 147.71 147.767)" fill="#262B35"/>
<circle opacity="0.4" cx="165.85" cy="147.767" r="2.09302" transform="rotate(-90 165.85 147.767)" fill="#262B35"/>
<circle opacity="0.4" cx="183.99" cy="147.767" r="2.09302" transform="rotate(-90 183.99 147.767)" fill="#262B35"/>
<circle opacity="0.4" cx="202.13" cy="147.767" r="2.09302" transform="rotate(-90 202.13 147.767)" fill="#262B35"/>
<circle opacity="0.4" cx="220.27" cy="147.767" r="2.09302" transform="rotate(-90 220.27 147.767)" fill="#262B35"/>
<circle opacity="0.4" cx="238.41" cy="147.767" r="2.09302" transform="rotate(-90 238.41 147.767)" fill="#262B35"/>
<circle opacity="0.4" cx="2.58997" cy="129.628" r="2.09302" transform="rotate(-90 2.58997 129.628)" fill="#262B35"/>
<circle opacity="0.4" cx="20.73" cy="129.628" r="2.09302" transform="rotate(-90 20.73 129.628)" fill="#262B35"/>
<circle opacity="0.4" cx="38.87" cy="129.628" r="2.09302" transform="rotate(-90 38.87 129.628)" fill="#262B35"/>
<circle opacity="0.4" cx="57.01" cy="129.628" r="2.09302" transform="rotate(-90 57.01 129.628)" fill="#262B35"/>
<circle opacity="0.4" cx="75.1499" cy="129.628" r="2.09302" transform="rotate(-90 75.1499 129.628)" fill="#262B35"/>
<circle opacity="0.4" cx="93.2899" cy="129.628" r="2.09302" transform="rotate(-90 93.2899 129.628)" fill="#262B35"/>
<circle opacity="0.4" cx="111.43" cy="129.628" r="2.09302" transform="rotate(-90 111.43 129.628)" fill="#262B35"/>
<circle opacity="0.4" cx="129.57" cy="129.628" r="2.09302" transform="rotate(-90 129.57 129.628)" fill="#262B35"/>
<circle opacity="0.4" cx="147.71" cy="129.628" r="2.09302" transform="rotate(-90 147.71 129.628)" fill="#262B35"/>
<circle opacity="0.4" cx="165.85" cy="129.628" r="2.09302" transform="rotate(-90 165.85 129.628)" fill="#262B35"/>
<circle opacity="0.4" cx="183.99" cy="129.628" r="2.09302" transform="rotate(-90 183.99 129.628)" fill="#262B35"/>
<circle opacity="0.4" cx="202.13" cy="129.628" r="2.09302" transform="rotate(-90 202.13 129.628)" fill="#262B35"/>
<circle opacity="0.4" cx="220.27" cy="129.628" r="2.09302" transform="rotate(-90 220.27 129.628)" fill="#262B35"/>
<circle opacity="0.4" cx="238.41" cy="129.628" r="2.09302" transform="rotate(-90 238.41 129.628)" fill="#262B35"/>
<circle opacity="0.4" cx="2.58997" cy="111.488" r="2.09302" transform="rotate(-90 2.58997 111.488)" fill="#262B35"/>
<circle opacity="0.4" cx="20.73" cy="111.488" r="2.09302" transform="rotate(-90 20.73 111.488)" fill="#262B35"/>
<circle opacity="0.4" cx="38.87" cy="111.488" r="2.09302" transform="rotate(-90 38.87 111.488)" fill="#262B35"/>
<circle opacity="0.4" cx="57.01" cy="111.488" r="2.09302" transform="rotate(-90 57.01 111.488)" fill="#262B35"/>
<circle opacity="0.4" cx="75.1499" cy="111.488" r="2.09302" transform="rotate(-90 75.1499 111.488)" fill="#262B35"/>
<circle opacity="0.4" cx="93.2899" cy="111.488" r="2.09302" transform="rotate(-90 93.2899 111.488)" fill="#262B35"/>
<circle opacity="0.4" cx="111.43" cy="111.488" r="2.09302" transform="rotate(-90 111.43 111.488)" fill="#262B35"/>
<circle opacity="0.4" cx="129.57" cy="111.488" r="2.09302" transform="rotate(-90 129.57 111.488)" fill="#262B35"/>
<circle opacity="0.4" cx="147.71" cy="111.488" r="2.09302" transform="rotate(-90 147.71 111.488)" fill="#262B35"/>
<circle opacity="0.4" cx="165.85" cy="111.488" r="2.09302" transform="rotate(-90 165.85 111.488)" fill="#262B35"/>
<circle opacity="0.4" cx="183.99" cy="111.488" r="2.09302" transform="rotate(-90 183.99 111.488)" fill="#262B35"/>
<circle opacity="0.4" cx="202.13" cy="111.488" r="2.09302" transform="rotate(-90 202.13 111.488)" fill="#262B35"/>
<circle opacity="0.4" cx="220.27" cy="111.488" r="2.09302" transform="rotate(-90 220.27 111.488)" fill="#262B35"/>
<circle opacity="0.4" cx="238.41" cy="111.488" r="2.09302" transform="rotate(-90 238.41 111.488)" fill="#262B35"/>
<circle opacity="0.4" cx="2.58997" cy="93.3489" r="2.09302" transform="rotate(-90 2.58997 93.3489)" fill="#262B35"/>
<circle opacity="0.4" cx="20.73" cy="93.3489" r="2.09302" transform="rotate(-90 20.73 93.3489)" fill="#262B35"/>
<circle opacity="0.4" cx="38.87" cy="93.3489" r="2.09302" transform="rotate(-90 38.87 93.3489)" fill="#262B35"/>
<circle opacity="0.4" cx="57.01" cy="93.3489" r="2.09302" transform="rotate(-90 57.01 93.3489)" fill="#262B35"/>
<circle opacity="0.4" cx="75.1499" cy="93.3489" r="2.09302" transform="rotate(-90 75.1499 93.3489)" fill="#262B35"/>
<circle opacity="0.4" cx="93.2899" cy="93.3489" r="2.09302" transform="rotate(-90 93.2899 93.3489)" fill="#262B35"/>
<circle opacity="0.4" cx="111.43" cy="93.3489" r="2.09302" transform="rotate(-90 111.43 93.3489)" fill="#262B35"/>
<circle opacity="0.4" cx="129.57" cy="93.3489" r="2.09302" transform="rotate(-90 129.57 93.3489)" fill="#262B35"/>
<circle opacity="0.4" cx="147.71" cy="93.3489" r="2.09302" transform="rotate(-90 147.71 93.3489)" fill="#262B35"/>
<circle opacity="0.4" cx="165.85" cy="93.3489" r="2.09302" transform="rotate(-90 165.85 93.3489)" fill="#262B35"/>
<circle opacity="0.4" cx="183.99" cy="93.3489" r="2.09302" transform="rotate(-90 183.99 93.3489)" fill="#262B35"/>
<circle opacity="0.4" cx="202.13" cy="93.3489" r="2.09302" transform="rotate(-90 202.13 93.3489)" fill="#262B35"/>
<circle opacity="0.4" cx="220.27" cy="93.3489" r="2.09302" transform="rotate(-90 220.27 93.3489)" fill="#262B35"/>
<circle opacity="0.4" cx="238.41" cy="93.3489" r="2.09302" transform="rotate(-90 238.41 93.3489)" fill="#262B35"/>
<circle opacity="0.4" cx="2.58997" cy="75.209" r="2.09302" transform="rotate(-90 2.58997 75.209)" fill="#262B35"/>
<circle opacity="0.4" cx="20.73" cy="75.209" r="2.09302" transform="rotate(-90 20.73 75.209)" fill="#262B35"/>
<circle opacity="0.4" cx="38.87" cy="75.209" r="2.09302" transform="rotate(-90 38.87 75.209)" fill="#262B35"/>
<circle opacity="0.4" cx="57.01" cy="75.209" r="2.09302" transform="rotate(-90 57.01 75.209)" fill="#262B35"/>
<circle opacity="0.4" cx="75.1499" cy="75.209" r="2.09302" transform="rotate(-90 75.1499 75.209)" fill="#262B35"/>
<circle opacity="0.4" cx="93.2899" cy="75.209" r="2.09302" transform="rotate(-90 93.2899 75.209)" fill="#262B35"/>
<circle opacity="0.4" cx="111.43" cy="75.209" r="2.09302" transform="rotate(-90 111.43 75.209)" fill="#262B35"/>
<circle opacity="0.4" cx="129.57" cy="75.209" r="2.09302" transform="rotate(-90 129.57 75.209)" fill="#262B35"/>
<circle opacity="0.4" cx="147.71" cy="75.209" r="2.09302" transform="rotate(-90 147.71 75.209)" fill="#262B35"/>
<circle opacity="0.4" cx="165.85" cy="75.209" r="2.09302" transform="rotate(-90 165.85 75.209)" fill="#262B35"/>
<circle opacity="0.4" cx="183.99" cy="75.209" r="2.09302" transform="rotate(-90 183.99 75.209)" fill="#262B35"/>
<circle opacity="0.4" cx="202.13" cy="75.209" r="2.09302" transform="rotate(-90 202.13 75.209)" fill="#262B35"/>
<circle opacity="0.4" cx="220.27" cy="75.209" r="2.09302" transform="rotate(-90 220.27 75.209)" fill="#262B35"/>
<circle opacity="0.4" cx="238.41" cy="75.209" r="2.09302" transform="rotate(-90 238.41 75.209)" fill="#262B35"/>
<circle opacity="0.4" cx="2.58997" cy="57.0698" r="2.09302" transform="rotate(-90 2.58997 57.0698)" fill="#262B35"/>
<circle opacity="0.4" cx="20.73" cy="57.0698" r="2.09302" transform="rotate(-90 20.73 57.0698)" fill="#262B35"/>
<circle opacity="0.4" cx="38.87" cy="57.0698" r="2.09302" transform="rotate(-90 38.87 57.0698)" fill="#262B35"/>
<circle opacity="0.4" cx="57.01" cy="57.0698" r="2.09302" transform="rotate(-90 57.01 57.0698)" fill="#262B35"/>
<circle opacity="0.4" cx="75.1499" cy="57.0698" r="2.09302" transform="rotate(-90 75.1499 57.0698)" fill="#262B35"/>
<circle opacity="0.4" cx="93.2899" cy="57.0698" r="2.09302" transform="rotate(-90 93.2899 57.0698)" fill="#262B35"/>
<circle opacity="0.4" cx="111.43" cy="57.0698" r="2.09302" transform="rotate(-90 111.43 57.0698)" fill="#262B35"/>
<circle opacity="0.4" cx="129.57" cy="57.0698" r="2.09302" transform="rotate(-90 129.57 57.0698)" fill="#262B35"/>
<circle opacity="0.4" cx="147.71" cy="57.0698" r="2.09302" transform="rotate(-90 147.71 57.0698)" fill="#262B35"/>
<circle opacity="0.4" cx="165.85" cy="57.0698" r="2.09302" transform="rotate(-90 165.85 57.0698)" fill="#262B35"/>
<circle opacity="0.4" cx="183.99" cy="57.0698" r="2.09302" transform="rotate(-90 183.99 57.0698)" fill="#262B35"/>
<circle opacity="0.4" cx="202.13" cy="57.0698" r="2.09302" transform="rotate(-90 202.13 57.0698)" fill="#262B35"/>
<circle opacity="0.4" cx="220.27" cy="57.0698" r="2.09302" transform="rotate(-90 220.27 57.0698)" fill="#262B35"/>
<circle opacity="0.4" cx="238.41" cy="57.0698" r="2.09302" transform="rotate(-90 238.41 57.0698)" fill="#262B35"/>
<circle opacity="0.4" cx="2.58997" cy="38.9299" r="2.09302" transform="rotate(-90 2.58997 38.9299)" fill="#262B35"/>
<circle opacity="0.4" cx="20.73" cy="38.9299" r="2.09302" transform="rotate(-90 20.73 38.9299)" fill="#262B35"/>
<circle opacity="0.4" cx="38.87" cy="38.9299" r="2.09302" transform="rotate(-90 38.87 38.9299)" fill="#262B35"/>
<circle opacity="0.4" cx="57.01" cy="38.9299" r="2.09302" transform="rotate(-90 57.01 38.9299)" fill="#262B35"/>
<circle opacity="0.4" cx="75.1499" cy="38.9299" r="2.09302" transform="rotate(-90 75.1499 38.9299)" fill="#262B35"/>
<circle opacity="0.4" cx="93.2899" cy="38.9299" r="2.09302" transform="rotate(-90 93.2899 38.9299)" fill="#262B35"/>
<circle opacity="0.4" cx="111.43" cy="38.9299" r="2.09302" transform="rotate(-90 111.43 38.9299)" fill="#262B35"/>
<circle opacity="0.4" cx="129.57" cy="38.9299" r="2.09302" transform="rotate(-90 129.57 38.9299)" fill="#262B35"/>
<circle opacity="0.4" cx="147.71" cy="38.9299" r="2.09302" transform="rotate(-90 147.71 38.9299)" fill="#262B35"/>
<circle opacity="0.4" cx="165.85" cy="38.9299" r="2.09302" transform="rotate(-90 165.85 38.9299)" fill="#262B35"/>
<circle opacity="0.4" cx="183.99" cy="38.9299" r="2.09302" transform="rotate(-90 183.99 38.9299)" fill="#262B35"/>
<circle opacity="0.4" cx="202.13" cy="38.9299" r="2.09302" transform="rotate(-90 202.13 38.9299)" fill="#262B35"/>
<circle opacity="0.4" cx="220.27" cy="38.9299" r="2.09302" transform="rotate(-90 220.27 38.9299)" fill="#262B35"/>
<circle opacity="0.4" cx="238.41" cy="38.9299" r="2.09302" transform="rotate(-90 238.41 38.9299)" fill="#262B35"/>
<circle opacity="0.4" cx="2.58997" cy="20.7898" r="2.09302" transform="rotate(-90 2.58997 20.7898)" fill="#262B35"/>
<circle opacity="0.4" cx="20.73" cy="20.7898" r="2.09302" transform="rotate(-90 20.73 20.7898)" fill="#262B35"/>
<circle opacity="0.4" cx="38.87" cy="20.7898" r="2.09302" transform="rotate(-90 38.87 20.7898)" fill="#262B35"/>
<circle opacity="0.4" cx="57.01" cy="20.7898" r="2.09302" transform="rotate(-90 57.01 20.7898)" fill="#262B35"/>
<circle opacity="0.4" cx="75.1499" cy="20.7898" r="2.09302" transform="rotate(-90 75.1499 20.7898)" fill="#262B35"/>
<circle opacity="0.4" cx="93.2899" cy="20.7898" r="2.09302" transform="rotate(-90 93.2899 20.7898)" fill="#262B35"/>
<circle opacity="0.4" cx="111.43" cy="20.7898" r="2.09302" transform="rotate(-90 111.43 20.7898)" fill="#262B35"/>
<circle opacity="0.4" cx="129.57" cy="20.7898" r="2.09302" transform="rotate(-90 129.57 20.7898)" fill="#262B35"/>
<circle opacity="0.4" cx="147.71" cy="20.7898" r="2.09302" transform="rotate(-90 147.71 20.7898)" fill="#262B35"/>
<circle opacity="0.4" cx="165.85" cy="20.7898" r="2.09302" transform="rotate(-90 165.85 20.7898)" fill="#262B35"/>
<circle opacity="0.4" cx="183.99" cy="20.7898" r="2.09302" transform="rotate(-90 183.99 20.7898)" fill="#262B35"/>
<circle opacity="0.4" cx="202.13" cy="20.7898" r="2.09302" transform="rotate(-90 202.13 20.7898)" fill="#262B35"/>
<circle opacity="0.4" cx="220.27" cy="20.7898" r="2.09302" transform="rotate(-90 220.27 20.7898)" fill="#262B35"/>
<circle opacity="0.4" cx="238.41" cy="20.7898" r="2.09302" transform="rotate(-90 238.41 20.7898)" fill="#262B35"/>
<circle opacity="0.4" cx="2.58997" cy="2.65088" r="2.09302" transform="rotate(-90 2.58997 2.65088)" fill="#262B35"/>
<circle opacity="0.4" cx="20.73" cy="2.65088" r="2.09302" transform="rotate(-90 20.73 2.65088)" fill="#262B35"/>
<circle opacity="0.4" cx="38.87" cy="2.65088" r="2.09302" transform="rotate(-90 38.87 2.65088)" fill="#262B35"/>
<circle opacity="0.4" cx="57.01" cy="2.65088" r="2.09302" transform="rotate(-90 57.01 2.65088)" fill="#262B35"/>
<circle opacity="0.4" cx="75.1499" cy="2.65088" r="2.09302" transform="rotate(-90 75.1499 2.65088)" fill="#262B35"/>
<circle opacity="0.4" cx="93.2899" cy="2.65088" r="2.09302" transform="rotate(-90 93.2899 2.65088)" fill="#262B35"/>
<circle opacity="0.4" cx="111.43" cy="2.65088" r="2.09302" transform="rotate(-90 111.43 2.65088)" fill="#262B35"/>
<circle opacity="0.4" cx="129.57" cy="2.65088" r="2.09302" transform="rotate(-90 129.57 2.65088)" fill="#262B35"/>
<circle opacity="0.4" cx="147.71" cy="2.65088" r="2.09302" transform="rotate(-90 147.71 2.65088)" fill="#262B35"/>
<circle opacity="0.4" cx="165.85" cy="2.65088" r="2.09302" transform="rotate(-90 165.85 2.65088)" fill="#262B35"/>
<circle opacity="0.4" cx="183.99" cy="2.65088" r="2.09302" transform="rotate(-90 183.99 2.65088)" fill="#262B35"/>
<circle opacity="0.4" cx="202.13" cy="2.65088" r="2.09302" transform="rotate(-90 202.13 2.65088)" fill="#262B35"/>
<circle opacity="0.4" cx="220.27" cy="2.65088" r="2.09302" transform="rotate(-90 220.27 2.65088)" fill="#262B35"/>
<circle opacity="0.4" cx="238.41" cy="2.65088" r="2.09302" transform="rotate(-90 238.41 2.65088)" fill="#262B35"/>
</g>
<g opacity="0.4">
<circle opacity="0.4" cx="2.58995" cy="345.91" r="2.093" transform="rotate(-90 2.58995 345.91)" fill="#262B35"/>
<circle opacity="0.4" cx="20.73" cy="345.91" r="2.093" transform="rotate(-90 20.73 345.91)" fill="#262B35"/>
<circle opacity="0.4" cx="38.87" cy="345.91" r="2.093" transform="rotate(-90 38.87 345.91)" fill="#262B35"/>
<circle opacity="0.4" cx="57.01" cy="345.91" r="2.093" transform="rotate(-90 57.01 345.91)" fill="#262B35"/>
<circle opacity="0.4" cx="75.1499" cy="345.91" r="2.093" transform="rotate(-90 75.1499 345.91)" fill="#262B35"/>
<circle opacity="0.4" cx="93.2899" cy="345.91" r="2.093" transform="rotate(-90 93.2899 345.91)" fill="#262B35"/>
<circle opacity="0.4" cx="111.43" cy="345.91" r="2.093" transform="rotate(-90 111.43 345.91)" fill="#262B35"/>
<circle opacity="0.4" cx="129.57" cy="345.91" r="2.093" transform="rotate(-90 129.57 345.91)" fill="#262B35"/>
<circle opacity="0.4" cx="147.71" cy="345.91" r="2.093" transform="rotate(-90 147.71 345.91)" fill="#262B35"/>
<circle opacity="0.4" cx="165.85" cy="345.91" r="2.093" transform="rotate(-90 165.85 345.91)" fill="#262B35"/>
<circle opacity="0.4" cx="183.99" cy="345.91" r="2.093" transform="rotate(-90 183.99 345.91)" fill="#262B35"/>
<circle opacity="0.4" cx="202.13" cy="345.91" r="2.093" transform="rotate(-90 202.13 345.91)" fill="#262B35"/>
<circle opacity="0.4" cx="220.26" cy="345.91" r="2.093" transform="rotate(-90 220.26 345.91)" fill="#262B35"/>
<circle opacity="0.4" cx="238.4" cy="345.91" r="2.093" transform="rotate(-90 238.4 345.91)" fill="#262B35"/>
<circle opacity="0.4" cx="2.58995" cy="327.77" r="2.093" transform="rotate(-90 2.58995 327.77)" fill="#262B35"/>
<circle opacity="0.4" cx="20.73" cy="327.77" r="2.093" transform="rotate(-90 20.73 327.77)" fill="#262B35"/>
<circle opacity="0.4" cx="38.87" cy="327.77" r="2.093" transform="rotate(-90 38.87 327.77)" fill="#262B35"/>
<circle opacity="0.4" cx="57.01" cy="327.77" r="2.093" transform="rotate(-90 57.01 327.77)" fill="#262B35"/>
<circle opacity="0.4" cx="75.1499" cy="327.77" r="2.093" transform="rotate(-90 75.1499 327.77)" fill="#262B35"/>
<circle opacity="0.4" cx="93.2899" cy="327.77" r="2.093" transform="rotate(-90 93.2899 327.77)" fill="#262B35"/>
<circle opacity="0.4" cx="111.43" cy="327.77" r="2.093" transform="rotate(-90 111.43 327.77)" fill="#262B35"/>
<circle opacity="0.4" cx="129.57" cy="327.77" r="2.093" transform="rotate(-90 129.57 327.77)" fill="#262B35"/>
<circle opacity="0.4" cx="147.71" cy="327.77" r="2.093" transform="rotate(-90 147.71 327.77)" fill="#262B35"/>
<circle opacity="0.4" cx="165.85" cy="327.77" r="2.093" transform="rotate(-90 165.85 327.77)" fill="#262B35"/>
<circle opacity="0.4" cx="183.99" cy="327.77" r="2.093" transform="rotate(-90 183.99 327.77)" fill="#262B35"/>
<circle opacity="0.4" cx="202.13" cy="327.77" r="2.093" transform="rotate(-90 202.13 327.77)" fill="#262B35"/>
<circle opacity="0.4" cx="220.26" cy="327.77" r="2.093" transform="rotate(-90 220.26 327.77)" fill="#262B35"/>
<circle opacity="0.4" cx="238.4" cy="327.77" r="2.093" transform="rotate(-90 238.4 327.77)" fill="#262B35"/>
<circle opacity="0.4" cx="2.58995" cy="309.63" r="2.093" transform="rotate(-90 2.58995 309.63)" fill="#262B35"/>
<circle opacity="0.4" cx="20.73" cy="309.63" r="2.093" transform="rotate(-90 20.73 309.63)" fill="#262B35"/>
<circle opacity="0.4" cx="38.87" cy="309.63" r="2.093" transform="rotate(-90 38.87 309.63)" fill="#262B35"/>
<circle opacity="0.4" cx="57.01" cy="309.63" r="2.093" transform="rotate(-90 57.01 309.63)" fill="#262B35"/>
<circle opacity="0.4" cx="75.1499" cy="309.63" r="2.093" transform="rotate(-90 75.1499 309.63)" fill="#262B35"/>
<circle opacity="0.4" cx="93.2899" cy="309.63" r="2.093" transform="rotate(-90 93.2899 309.63)" fill="#262B35"/>
<circle opacity="0.4" cx="111.43" cy="309.63" r="2.093" transform="rotate(-90 111.43 309.63)" fill="#262B35"/>
<circle opacity="0.4" cx="129.57" cy="309.63" r="2.093" transform="rotate(-90 129.57 309.63)" fill="#262B35"/>
<circle opacity="0.4" cx="147.71" cy="309.63" r="2.093" transform="rotate(-90 147.71 309.63)" fill="#262B35"/>
<circle opacity="0.4" cx="165.85" cy="309.63" r="2.093" transform="rotate(-90 165.85 309.63)" fill="#262B35"/>
<circle opacity="0.4" cx="183.99" cy="309.63" r="2.093" transform="rotate(-90 183.99 309.63)" fill="#262B35"/>
<circle opacity="0.4" cx="202.13" cy="309.63" r="2.093" transform="rotate(-90 202.13 309.63)" fill="#262B35"/>
<circle opacity="0.4" cx="220.26" cy="309.63" r="2.093" transform="rotate(-90 220.26 309.63)" fill="#262B35"/>
<circle opacity="0.4" cx="238.4" cy="309.63" r="2.093" transform="rotate(-90 238.4 309.63)" fill="#262B35"/>
<circle opacity="0.4" cx="2.58995" cy="291.49" r="2.093" transform="rotate(-90 2.58995 291.49)" fill="#262B35"/>
<circle opacity="0.4" cx="20.73" cy="291.49" r="2.093" transform="rotate(-90 20.73 291.49)" fill="#262B35"/>
<circle opacity="0.4" cx="38.87" cy="291.49" r="2.093" transform="rotate(-90 38.87 291.49)" fill="#262B35"/>
<circle opacity="0.4" cx="57.01" cy="291.49" r="2.093" transform="rotate(-90 57.01 291.49)" fill="#262B35"/>
<circle opacity="0.4" cx="75.1499" cy="291.49" r="2.093" transform="rotate(-90 75.1499 291.49)" fill="#262B35"/>
<circle opacity="0.4" cx="93.2899" cy="291.49" r="2.093" transform="rotate(-90 93.2899 291.49)" fill="#262B35"/>
<circle opacity="0.4" cx="111.43" cy="291.49" r="2.093" transform="rotate(-90 111.43 291.49)" fill="#262B35"/>
<circle opacity="0.4" cx="129.57" cy="291.49" r="2.093" transform="rotate(-90 129.57 291.49)" fill="#262B35"/>
<circle opacity="0.4" cx="147.71" cy="291.49" r="2.093" transform="rotate(-90 147.71 291.49)" fill="#262B35"/>
<circle opacity="0.4" cx="165.85" cy="291.49" r="2.093" transform="rotate(-90 165.85 291.49)" fill="#262B35"/>
<circle opacity="0.4" cx="183.99" cy="291.49" r="2.093" transform="rotate(-90 183.99 291.49)" fill="#262B35"/>
<circle opacity="0.4" cx="202.13" cy="291.49" r="2.093" transform="rotate(-90 202.13 291.49)" fill="#262B35"/>
<circle opacity="0.4" cx="220.26" cy="291.49" r="2.093" transform="rotate(-90 220.26 291.49)" fill="#262B35"/>
<circle opacity="0.4" cx="238.4" cy="291.49" r="2.093" transform="rotate(-90 238.4 291.49)" fill="#262B35"/>
<circle opacity="0.4" cx="2.58995" cy="273.35" r="2.093" transform="rotate(-90 2.58995 273.35)" fill="#262B35"/>
<circle opacity="0.4" cx="20.73" cy="273.35" r="2.093" transform="rotate(-90 20.73 273.35)" fill="#262B35"/>
<circle opacity="0.4" cx="38.87" cy="273.35" r="2.093" transform="rotate(-90 38.87 273.35)" fill="#262B35"/>
<circle opacity="0.4" cx="57.01" cy="273.35" r="2.093" transform="rotate(-90 57.01 273.35)" fill="#262B35"/>
<circle opacity="0.4" cx="75.1499" cy="273.35" r="2.093" transform="rotate(-90 75.1499 273.35)" fill="#262B35"/>
<circle opacity="0.4" cx="93.2899" cy="273.35" r="2.093" transform="rotate(-90 93.2899 273.35)" fill="#262B35"/>
<circle opacity="0.4" cx="111.43" cy="273.35" r="2.093" transform="rotate(-90 111.43 273.35)" fill="#262B35"/>
<circle opacity="0.4" cx="129.57" cy="273.35" r="2.093" transform="rotate(-90 129.57 273.35)" fill="#262B35"/>
<circle opacity="0.4" cx="147.71" cy="273.35" r="2.093" transform="rotate(-90 147.71 273.35)" fill="#262B35"/>
<circle opacity="0.4" cx="165.85" cy="273.35" r="2.093" transform="rotate(-90 165.85 273.35)" fill="#262B35"/>
<circle opacity="0.4" cx="183.99" cy="273.35" r="2.093" transform="rotate(-90 183.99 273.35)" fill="#262B35"/>
<circle opacity="0.4" cx="202.13" cy="273.35" r="2.093" transform="rotate(-90 202.13 273.35)" fill="#262B35"/>
<circle opacity="0.4" cx="220.26" cy="273.35" r="2.093" transform="rotate(-90 220.26 273.35)" fill="#262B35"/>
<circle opacity="0.4" cx="238.4" cy="273.35" r="2.093" transform="rotate(-90 238.4 273.35)" fill="#262B35"/>
<circle opacity="0.4" cx="2.58995" cy="255.21" r="2.093" transform="rotate(-90 2.58995 255.21)" fill="#262B35"/>
<circle opacity="0.4" cx="20.73" cy="255.21" r="2.093" transform="rotate(-90 20.73 255.21)" fill="#262B35"/>
<circle opacity="0.4" cx="38.87" cy="255.21" r="2.093" transform="rotate(-90 38.87 255.21)" fill="#262B35"/>
<circle opacity="0.4" cx="57.01" cy="255.21" r="2.093" transform="rotate(-90 57.01 255.21)" fill="#262B35"/>
<circle opacity="0.4" cx="75.1499" cy="255.21" r="2.093" transform="rotate(-90 75.1499 255.21)" fill="#262B35"/>
<circle opacity="0.4" cx="93.2899" cy="255.21" r="2.093" transform="rotate(-90 93.2899 255.21)" fill="#262B35"/>
<circle opacity="0.4" cx="111.43" cy="255.21" r="2.093" transform="rotate(-90 111.43 255.21)" fill="#262B35"/>
<circle opacity="0.4" cx="129.57" cy="255.21" r="2.093" transform="rotate(-90 129.57 255.21)" fill="#262B35"/>
<circle opacity="0.4" cx="147.71" cy="255.21" r="2.093" transform="rotate(-90 147.71 255.21)" fill="#262B35"/>
<circle opacity="0.4" cx="165.85" cy="255.21" r="2.093" transform="rotate(-90 165.85 255.21)" fill="#262B35"/>
<circle opacity="0.4" cx="183.99" cy="255.21" r="2.093" transform="rotate(-90 183.99 255.21)" fill="#262B35"/>
<circle opacity="0.4" cx="202.13" cy="255.21" r="2.093" transform="rotate(-90 202.13 255.21)" fill="#262B35"/>
<circle opacity="0.4" cx="220.26" cy="255.21" r="2.093" transform="rotate(-90 220.26 255.21)" fill="#262B35"/>
<circle opacity="0.4" cx="238.4" cy="255.21" r="2.093" transform="rotate(-90 238.4 255.21)" fill="#262B35"/>
<circle opacity="0.4" cx="2.58995" cy="237.07" r="2.093" transform="rotate(-90 2.58995 237.07)" fill="#262B35"/>
<circle opacity="0.4" cx="20.73" cy="237.07" r="2.093" transform="rotate(-90 20.73 237.07)" fill="#262B35"/>
<circle opacity="0.4" cx="38.87" cy="237.07" r="2.093" transform="rotate(-90 38.87 237.07)" fill="#262B35"/>
<circle opacity="0.4" cx="57.01" cy="237.07" r="2.093" transform="rotate(-90 57.01 237.07)" fill="#262B35"/>
<circle opacity="0.4" cx="75.1499" cy="237.07" r="2.093" transform="rotate(-90 75.1499 237.07)" fill="#262B35"/>
<circle opacity="0.4" cx="93.2899" cy="237.07" r="2.093" transform="rotate(-90 93.2899 237.07)" fill="#262B35"/>
<circle opacity="0.4" cx="111.43" cy="237.07" r="2.093" transform="rotate(-90 111.43 237.07)" fill="#262B35"/>
<circle opacity="0.4" cx="129.57" cy="237.07" r="2.093" transform="rotate(-90 129.57 237.07)" fill="#262B35"/>
<circle opacity="0.4" cx="147.71" cy="237.07" r="2.093" transform="rotate(-90 147.71 237.07)" fill="#262B35"/>
<circle opacity="0.4" cx="165.85" cy="237.07" r="2.093" transform="rotate(-90 165.85 237.07)" fill="#262B35"/>
<circle opacity="0.4" cx="183.99" cy="237.07" r="2.093" transform="rotate(-90 183.99 237.07)" fill="#262B35"/>
<circle opacity="0.4" cx="202.13" cy="237.07" r="2.093" transform="rotate(-90 202.13 237.07)" fill="#262B35"/>
<circle opacity="0.4" cx="220.26" cy="237.07" r="2.093" transform="rotate(-90 220.26 237.07)" fill="#262B35"/>
<circle opacity="0.4" cx="238.4" cy="237.07" r="2.093" transform="rotate(-90 238.4 237.07)" fill="#262B35"/>
<circle opacity="0.4" cx="2.58995" cy="218.93" r="2.093" transform="rotate(-90 2.58995 218.93)" fill="#262B35"/>
<circle opacity="0.4" cx="20.73" cy="218.93" r="2.093" transform="rotate(-90 20.73 218.93)" fill="#262B35"/>
<circle opacity="0.4" cx="38.87" cy="218.93" r="2.093" transform="rotate(-90 38.87 218.93)" fill="#262B35"/>
<circle opacity="0.4" cx="57.01" cy="218.93" r="2.093" transform="rotate(-90 57.01 218.93)" fill="#262B35"/>
<circle opacity="0.4" cx="75.1499" cy="218.93" r="2.093" transform="rotate(-90 75.1499 218.93)" fill="#262B35"/>
<circle opacity="0.4" cx="93.2899" cy="218.93" r="2.093" transform="rotate(-90 93.2899 218.93)" fill="#262B35"/>
<circle opacity="0.4" cx="111.43" cy="218.93" r="2.093" transform="rotate(-90 111.43 218.93)" fill="#262B35"/>
<circle opacity="0.4" cx="129.57" cy="218.93" r="2.093" transform="rotate(-90 129.57 218.93)" fill="#262B35"/>
<circle opacity="0.4" cx="147.71" cy="218.93" r="2.093" transform="rotate(-90 147.71 218.93)" fill="#262B35"/>
<circle opacity="0.4" cx="165.85" cy="218.93" r="2.093" transform="rotate(-90 165.85 218.93)" fill="#262B35"/>
<circle opacity="0.4" cx="183.99" cy="218.93" r="2.093" transform="rotate(-90 183.99 218.93)" fill="#262B35"/>
<circle opacity="0.4" cx="202.13" cy="218.93" r="2.093" transform="rotate(-90 202.13 218.93)" fill="#262B35"/>
<circle opacity="0.4" cx="220.26" cy="218.93" r="2.093" transform="rotate(-90 220.26 218.93)" fill="#262B35"/>
<circle opacity="0.4" cx="238.4" cy="218.93" r="2.093" transform="rotate(-90 238.4 218.93)" fill="#262B35"/>
<circle opacity="0.4" cx="2.58995" cy="200.79" r="2.093" transform="rotate(-90 2.58995 200.79)" fill="#262B35"/>
<circle opacity="0.4" cx="20.73" cy="200.79" r="2.093" transform="rotate(-90 20.73 200.79)" fill="#262B35"/>
<circle opacity="0.4" cx="38.87" cy="200.79" r="2.093" transform="rotate(-90 38.87 200.79)" fill="#262B35"/>
<circle opacity="0.4" cx="57.01" cy="200.79" r="2.093" transform="rotate(-90 57.01 200.79)" fill="#262B35"/>
<circle opacity="0.4" cx="75.1499" cy="200.79" r="2.093" transform="rotate(-90 75.1499 200.79)" fill="#262B35"/>
<circle opacity="0.4" cx="93.2899" cy="200.79" r="2.093" transform="rotate(-90 93.2899 200.79)" fill="#262B35"/>
<circle opacity="0.4" cx="111.43" cy="200.79" r="2.093" transform="rotate(-90 111.43 200.79)" fill="#262B35"/>
<circle opacity="0.4" cx="129.57" cy="200.79" r="2.093" transform="rotate(-90 129.57 200.79)" fill="#262B35"/>
<circle opacity="0.4" cx="147.71" cy="200.79" r="2.093" transform="rotate(-90 147.71 200.79)" fill="#262B35"/>
<circle opacity="0.4" cx="165.85" cy="200.79" r="2.093" transform="rotate(-90 165.85 200.79)" fill="#262B35"/>
<circle opacity="0.4" cx="183.99" cy="200.79" r="2.093" transform="rotate(-90 183.99 200.79)" fill="#262B35"/>
<circle opacity="0.4" cx="202.13" cy="200.79" r="2.093" transform="rotate(-90 202.13 200.79)" fill="#262B35"/>
<circle opacity="0.4" cx="220.26" cy="200.79" r="2.093" transform="rotate(-90 220.26 200.79)" fill="#262B35"/>
<circle opacity="0.4" cx="238.4" cy="200.79" r="2.093" transform="rotate(-90 238.4 200.79)" fill="#262B35"/>
<circle opacity="0.4" cx="2.58995" cy="182.653" r="2.093" transform="rotate(-90 2.58995 182.653)" fill="#262B35"/>
<circle opacity="0.4" cx="20.73" cy="182.653" r="2.093" transform="rotate(-90 20.73 182.653)" fill="#262B35"/>
<circle opacity="0.4" cx="38.87" cy="182.653" r="2.093" transform="rotate(-90 38.87 182.653)" fill="#262B35"/>
<circle opacity="0.4" cx="57.01" cy="182.653" r="2.093" transform="rotate(-90 57.01 182.653)" fill="#262B35"/>
<circle opacity="0.4" cx="75.1499" cy="182.653" r="2.093" transform="rotate(-90 75.1499 182.653)" fill="#262B35"/>
<circle opacity="0.4" cx="93.2899" cy="182.653" r="2.093" transform="rotate(-90 93.2899 182.653)" fill="#262B35"/>
<circle opacity="0.4" cx="111.43" cy="182.653" r="2.093" transform="rotate(-90 111.43 182.653)" fill="#262B35"/>
<circle opacity="0.4" cx="129.57" cy="182.653" r="2.093" transform="rotate(-90 129.57 182.653)" fill="#262B35"/>
<circle opacity="0.4" cx="147.71" cy="182.653" r="2.093" transform="rotate(-90 147.71 182.653)" fill="#262B35"/>
<circle opacity="0.4" cx="165.85" cy="182.653" r="2.093" transform="rotate(-90 165.85 182.653)" fill="#262B35"/>
<circle opacity="0.4" cx="183.99" cy="182.653" r="2.093" transform="rotate(-90 183.99 182.653)" fill="#262B35"/>
<circle opacity="0.4" cx="202.13" cy="182.653" r="2.093" transform="rotate(-90 202.13 182.653)" fill="#262B35"/>
<circle opacity="0.4" cx="220.26" cy="182.653" r="2.093" transform="rotate(-90 220.26 182.653)" fill="#262B35"/>
<circle opacity="0.4" cx="238.4" cy="182.653" r="2.093" transform="rotate(-90 238.4 182.653)" fill="#262B35"/>
</g>
</svg>
