<svg width="148" height="42" viewBox="0 0 148 42" fill="none" xmlns="http://www.w3.org/2000/svg">
<path fill-rule="evenodd" clip-rule="evenodd" d="M73.221 13.7654C73.221 14.6951 72.408 15.4529 71.416 15.4529C70.432 15.4529 69.619 14.6951 69.619 13.7654C69.619 12.8435 70.432 12.0857 71.416 12.0857C72.408 12.0857 73.221 12.8435 73.221 13.7654ZM64.07 17.6013H67.312C67.266 14.7498 64.922 12.781 61.359 12.781C57.852 12.781 55.281 14.7185 55.297 17.6248C55.289 19.9841 56.953 21.3357 59.656 21.9841L61.398 22.4216C63.141 22.8435 64.109 23.3435 64.117 24.4216C64.109 25.5935 63 26.3904 61.281 26.3904C59.523 26.3904 58.258 25.5779 58.148 23.9763H54.875C54.961 27.4373 57.438 29.2263 61.32 29.2263C65.227 29.2263 67.523 27.3591 67.531 24.4294C67.523 21.7654 65.516 20.3513 62.734 19.7263L61.297 19.3826C59.906 19.0623 58.742 18.5466 58.766 17.3982C58.766 16.3669 59.68 15.6091 61.336 15.6091C62.953 15.6091 63.945 16.3435 64.07 17.6013ZM69.744 28.9998H73.072V16.9998H69.744V28.9998ZM75.738 33.4998H79.066V27.0779H79.168C79.629 28.0779 80.637 29.1951 82.574 29.1951C85.309 29.1951 87.441 27.031 87.441 23.0154C87.441 18.8904 85.215 16.8435 82.582 16.8435C80.574 16.8435 79.613 18.0388 79.168 19.0154H79.02V16.9998H75.738V33.4998ZM81.52 19.4919C79.902 19.4919 78.996 20.8591 78.996 22.9998C78.996 25.1404 79.918 26.5466 81.52 26.5466C83.152 26.5466 84.043 25.0935 84.043 22.9998C84.043 20.9216 83.168 19.4919 81.52 19.4919ZM92.988 22.0623C92.996 20.5154 93.941 19.6091 95.301 19.6091C96.652 19.6091 97.449 20.4763 97.441 21.9529V28.9998H100.77V21.3591C100.777 18.5466 99.121 16.8435 96.621 16.8435C94.801 16.8435 93.582 17.7029 93.035 19.1169H92.895V12.9998H89.66V28.9998H92.988V22.0623ZM114.717 23.0466C114.717 26.7419 112.451 29.2341 108.811 29.2341C105.17 29.2341 102.904 26.7419 102.904 23.0466C102.904 19.3279 105.17 16.8435 108.811 16.8435C112.451 16.8435 114.717 19.3279 114.717 23.0466ZM108.826 26.656C107.146 26.656 106.287 25.1169 106.287 23.0232C106.287 20.9294 107.146 19.3826 108.826 19.3826C110.475 19.3826 111.334 20.9294 111.334 23.0232C111.334 25.1169 110.475 26.656 108.826 26.656ZM120.209 28.9998H116.881V16.9998H120.053V19.1169H120.193C120.693 17.7029 121.92 16.8435 123.537 16.8435C125.186 16.8435 126.412 17.7263 126.795 19.1169H126.92C127.412 17.7419 128.779 16.8435 130.537 16.8435C132.771 16.8435 134.318 18.3279 134.318 20.9294V28.9998H130.998V21.5857C130.998 20.2498 130.201 19.5857 129.139 19.5857C127.928 19.5857 127.217 20.4294 127.217 21.6716V28.9998H123.99V21.5154C123.99 20.3357 123.256 19.5857 122.162 19.5857C121.053 19.5857 120.209 20.4685 120.209 21.7966V28.9998ZM142.416 29.2341C145.385 29.2341 147.385 27.7888 147.854 25.5623L144.775 25.3591C144.439 26.2732 143.58 26.7498 142.471 26.7498C140.807 26.7498 139.752 25.6482 139.752 23.8591V23.8513H147.924V22.9373C147.924 18.8591 145.455 16.8435 142.283 16.8435C138.752 16.8435 136.463 19.3513 136.463 23.0544C136.463 26.8591 138.721 29.2341 142.416 29.2341ZM142.338 19.3279C140.861 19.3279 139.822 20.4216 139.752 21.7888H144.791C144.783 20.3591 143.783 19.3279 142.338 19.3279Z" fill="white"/>
<path d="M0 20.9998C0 25.1532 1.232 29.2133 3.539 32.6667C5.847 36.1202 9.126 38.8118 12.964 40.4012C16.801 41.9907 21.023 42.4065 25.097 41.5962C29.17 40.786 32.912 38.7859 35.849 35.849C38.786 32.9121 40.786 29.1703 41.596 25.0967C42.407 21.0231 41.991 16.8007 40.401 12.9634C38.812 9.12616 36.12 5.84636 32.667 3.53886C29.214 1.23136 25.153 -0.000244141 21 -0.000244141V20.9998H0Z" fill="#1ECE7A"/>
<path d="M31.562 20.9997C31.562 18.1984 30.45 15.5118 28.469 13.5309C26.488 11.5501 23.801 10.4373 21 10.4373C18.199 10.4373 15.512 11.5501 13.531 13.5309C11.55 15.5118 10.438 18.1984 10.438 20.9997H21H31.562Z" fill="white"/>
</svg>
