<svg width="157" height="43" viewBox="0 0 157 43" fill="none" xmlns="http://www.w3.org/2000/svg">
<path fill-rule="evenodd" clip-rule="evenodd" d="M74.968 11.88C74.968 12.89 74.082 13.72 72.999 13.72C71.925 13.72 71.039 12.89 71.039 11.88C71.039 10.88 71.925 10.05 72.999 10.05C74.082 10.05 74.968 10.88 74.968 11.88ZM64.986 16.07H68.523C68.472 12.95 65.915 10.81 62.028 10.81C58.202 10.81 55.398 12.92 55.415 16.09C55.406 18.66 57.222 20.14 60.17 20.85L62.071 21.32C63.972 21.78 65.028 22.33 65.037 23.51C65.028 24.78 63.818 25.65 61.943 25.65C60.026 25.65 58.645 24.77 58.526 23.02H54.955C55.048 26.8 57.75 28.75 61.986 28.75C66.247 28.75 68.753 26.71 68.761 23.51C68.753 20.61 66.562 19.07 63.528 18.38L61.96 18.01C60.443 17.66 59.173 17.1 59.199 15.84C59.199 14.72 60.196 13.89 62.003 13.89C63.767 13.89 64.849 14.69 64.986 16.07ZM71.175 28.5H74.806V15.41H71.175V28.5ZM77.714 33.41H81.345V26.4H81.456C81.959 27.49 83.058 28.71 85.172 28.71C88.155 28.71 90.482 26.35 90.482 21.97C90.482 17.47 88.053 15.24 85.18 15.24C82.99 15.24 81.942 16.54 81.456 17.61H81.294V15.41H77.714V33.41ZM84.021 18.13C82.257 18.13 81.268 19.62 81.268 21.95C81.268 24.29 82.274 25.82 84.021 25.82C85.803 25.82 86.774 24.24 86.774 21.95C86.774 19.69 85.82 18.13 84.021 18.13ZM96.533 20.93C96.541 19.24 97.572 18.26 99.055 18.26C100.53 18.26 101.399 19.2 101.391 20.81V28.5H105.021V20.16C105.03 17.1 103.223 15.24 100.496 15.24C98.51 15.24 97.18 16.18 96.584 17.72H96.43V11.05H92.902V28.5H96.533V20.93ZM120.237 22.01C120.237 26.04 117.765 28.76 113.793 28.76C109.822 28.76 107.35 26.04 107.35 22.01C107.35 17.95 109.822 15.24 113.793 15.24C117.765 15.24 120.237 17.95 120.237 22.01ZM113.81 25.94C111.978 25.94 111.04 24.26 111.04 21.98C111.04 19.7 111.978 18.01 113.81 18.01C115.609 18.01 116.546 19.7 116.546 21.98C116.546 24.26 115.609 25.94 113.81 25.94ZM126.228 28.5H122.597V15.41H126.058V17.72H126.211C126.756 16.18 128.094 15.24 129.859 15.24C131.657 15.24 132.995 16.2 133.413 17.72H133.549C134.086 16.22 135.577 15.24 137.495 15.24C139.933 15.24 141.62 16.86 141.62 19.7V28.5H137.998V20.41C137.998 18.95 137.129 18.23 135.969 18.23C134.648 18.23 133.873 19.15 133.873 20.51V28.5H130.353V20.34C130.353 19.05 129.552 18.23 128.359 18.23C127.148 18.23 126.228 19.19 126.228 20.64V28.5ZM150.454 28.76C153.692 28.76 155.874 27.18 156.386 24.75L153.028 24.53C152.661 25.53 151.724 26.05 150.513 26.05C148.698 26.05 147.548 24.84 147.548 22.89V22.88H156.462V21.89C156.462 17.44 153.769 15.24 150.309 15.24C146.457 15.24 143.96 17.97 143.96 22.01C143.96 26.16 146.423 28.76 150.454 28.76ZM150.369 17.95C148.758 17.95 147.624 19.14 147.548 20.63H153.045C153.036 19.07 151.945 17.95 150.369 17.95Z" fill="#1C57C9"/>
<path d="M0 21C0 25.15 1.232 29.21 3.539 32.67C5.847 36.12 9.126 38.81 12.964 40.4C16.801 41.99 21.023 42.41 25.097 41.6C29.17 40.79 32.912 38.79 35.849 35.85C38.786 32.91 40.786 29.17 41.596 25.1C42.407 21.02 41.991 16.8 40.401 12.96C38.812 9.13 36.12 5.85 32.667 3.54C29.214 1.23 25.153 0 21 0V21H0Z" fill="#1ECE7A"/>
<path d="M33.135 21.5001C33.135 18.2801 31.856 15.2001 29.58 12.9201C27.305 10.6401 24.218 9.37012 21 9.37012C17.782 9.37012 14.695 10.6401 12.42 12.9201C10.144 15.2001 8.86603 18.2801 8.86603 21.5001H21H33.135Z" fill="#1C57C9"/>
</svg>
