<svg width="26" height="27" viewBox="0 0 26 27" fill="none" xmlns="http://www.w3.org/2000/svg">
<path d="M24.56 0.594971H1.43C0.64 0.594971 0 1.22497 0 1.99497V24.525C0 25.295 0.64 25.925 1.44 25.925H24.56C25.36 25.925 26 25.295 26 24.525V1.99497C26 1.22497 25.36 0.594971 24.56 0.594971Z" fill="#4267B2"/>
<path d="M17.95 25.925V16.135H21.34L21.85 12.295H17.95V9.85505C17.95 8.74505 18.27 7.99505 19.9 7.99505H21.96V4.57505C21.6 4.52505 20.37 4.42505 18.94 4.42505C15.94 4.42505 13.89 6.20505 13.89 9.47505V12.295H10.51V16.135H13.89V25.925H17.95Z" fill="white"/>
</svg>
