<svg width="55" height="55" viewBox="0 0 55 55" fill="none" xmlns="http://www.w3.org/2000/svg">
<rect width="55" height="55" rx="24" fill="#E9FAF0"/>
<path fill-rule="evenodd" clip-rule="evenodd" d="M36.7349 13.4914L27.733 9.5514C27.58 9.4814 27.406 9.4814 27.253 9.5514L18.251 13.4914C18.033 13.5914 17.891 13.8014 17.891 14.0414V23.4613C17.894 25.5813 18.912 27.5613 20.628 28.8013L26.849 33.2912C27.233 33.5712 27.753 33.5712 28.137 33.2912L34.3589 28.8013C36.0739 27.5613 37.0919 25.5813 37.0949 23.4613V14.0414C37.0949 13.8014 36.9539 13.5914 36.7349 13.4914ZM35.8949 23.4613C35.8919 25.1913 35.0599 26.8213 33.6559 27.8313L27.493 32.2812L21.33 27.8313C19.926 26.8213 19.094 25.1913 19.091 23.4613V14.4314L27.493 10.7514L35.8949 14.4314V23.4613ZM27.253 12.1714L20.652 15.0614C20.433 15.1614 20.292 15.3714 20.292 15.6114V23.4613C20.294 24.8113 20.941 26.0713 22.032 26.8613L27.142 30.5413C27.352 30.7013 27.635 30.7013 27.845 30.5413L32.9549 26.8613C34.0459 26.0713 34.6929 24.8113 34.6949 23.4613V15.6114C34.6949 15.3714 34.5539 15.1614 34.3349 15.0614L27.734 12.1714C27.581 12.1014 27.407 12.1014 27.253 12.1714ZM33.4949 16.0014V23.4613C33.4929 24.4213 33.0309 25.3213 32.2529 25.8913L27.494 29.3213L22.735 25.8913C21.956 25.3213 21.494 24.4213 21.492 23.4613V16.0014L27.494 13.3814L33.4949 16.0014ZM13.1641 26.3913L14.4621 29.4213C15.473 28.7513 16.804 28.8213 17.741 29.5913C18.751 30.5213 19.913 31.2613 21.177 31.7913C21.972 32.0813 22.667 32.5813 23.177 33.2512C24.047 34.3812 24.511 35.7612 24.493 37.1812V38.3012C25.156 38.3012 25.693 38.8412 25.693 39.5012V44.3012C25.693 44.9612 25.156 45.5012 24.493 45.5012H17.891C17.228 45.5012 16.691 44.9612 16.691 44.3012V39.5012C16.692 39.2012 16.808 38.9012 17.016 38.6812L13.3181 34.9912C12.7741 34.4412 12.3321 33.8112 12.0151 33.1012L9.66309 27.9313C9.38709 27.3113 9.46509 26.5813 9.86909 26.0313C10.2721 25.4813 10.9401 25.1813 11.6191 25.2613C12.2991 25.3313 12.8871 25.7613 13.1641 26.3913ZM17.891 44.3012H24.493V39.5012H17.891V44.3012ZM23.292 37.1812C23.311 36.0312 22.94 34.9112 22.24 34.0012C21.873 33.5112 21.372 33.1412 20.797 32.9312C19.387 32.3612 18.09 31.5413 16.968 30.5113C16.4071 30.0513 15.6011 30.0313 15.0251 30.4813C15.2411 30.8013 15.4891 31.1013 15.7641 31.3813L18.506 34.1212C18.662 34.2712 18.724 34.4912 18.67 34.7012C18.615 34.9112 18.451 35.0812 18.241 35.1312C18.031 35.1912 17.808 35.1212 17.657 34.9712L14.9161 32.2313C14.2731 31.5813 13.7591 30.8313 13.4021 29.9913L12.0601 26.8613C11.9481 26.6013 11.6901 26.4313 11.4051 26.4313C11.1621 26.4313 10.9361 26.5513 10.8051 26.7513C10.6741 26.9613 10.6551 27.2213 10.7551 27.4413L13.1071 32.6112C13.3651 33.1812 13.7241 33.7012 14.1661 34.1412L18.33 38.3012H23.292V37.1812ZM22.693 41.3012H22.093C21.761 41.3012 21.493 41.5712 21.493 41.9012C21.493 42.2312 21.761 42.5012 22.093 42.5012H22.693C23.024 42.5012 23.293 42.2312 23.293 41.9012C23.293 41.5712 23.024 41.3012 22.693 41.3012ZM45.3239 27.9313L42.9729 33.1012C42.6549 33.8112 42.2139 34.4412 41.6699 34.9912L37.9709 38.6812C38.1789 38.9012 38.2959 39.2012 38.2959 39.5012V44.3012C38.2959 44.9612 37.7589 45.5012 37.0959 45.5012H30.495C29.832 45.5012 29.294 44.9612 29.294 44.3012V39.5012C29.294 38.8412 29.832 38.3012 30.495 38.3012V37.1812C30.476 35.7612 30.94 34.3812 31.8099 33.2512C32.3199 32.5812 33.0159 32.0713 33.8099 31.7913C35.0739 31.2613 36.2369 30.5213 37.2459 29.5913C38.1819 28.8113 39.5139 28.7413 40.5289 29.4113L41.8239 26.3913C42.0929 25.7513 42.6839 25.3113 43.3709 25.2313C44.0569 25.1513 44.7319 25.4513 45.1369 26.0113C45.5419 26.5713 45.6139 27.3013 45.3239 27.9313ZM30.495 44.3012H37.0959V39.5012H30.495V44.3012ZM31.6949 38.3012H36.6569L40.8189 34.1412C41.2609 33.7012 41.6199 33.1812 41.8779 32.6112L44.2299 27.4413C44.3299 27.2213 44.3109 26.9613 44.1799 26.7613C44.0489 26.5513 43.8229 26.4313 43.5799 26.4313C43.2949 26.4313 43.0369 26.6013 42.9249 26.8613L41.5829 29.9913C41.2259 30.8313 40.7119 31.5813 40.0689 32.2313L37.3279 34.9712C37.0919 35.1912 36.7179 35.1912 36.4859 34.9612C36.2549 34.7312 36.2519 34.3512 36.4789 34.1212L39.2209 31.3813C39.4979 31.1013 39.7469 30.8013 39.9639 30.4713C39.3859 30.0313 38.5769 30.0413 38.0169 30.5113C36.8949 31.5413 35.5979 32.3612 34.1869 32.9312C33.6139 33.1412 33.1129 33.5112 32.7469 34.0012C32.0479 34.9112 31.6769 36.0312 31.6949 37.1812V38.3012ZM32.8949 41.3012H32.2949C31.9629 41.3012 31.6949 41.5712 31.6949 41.9012C31.6949 42.2312 31.9629 42.5012 32.2949 42.5012H32.8949C33.2259 42.5012 33.4949 42.2312 33.4949 41.9012C33.4949 41.5712 33.2259 41.3012 32.8949 41.3012ZM23.412 22.3413C23.611 22.0713 23.987 22.0213 24.252 22.2213L26.145 23.6413L30.5939 16.9714C30.7129 16.7914 30.9179 16.6914 31.1319 16.7014C31.3459 16.7114 31.5369 16.8414 31.6319 17.0314C31.7269 17.2313 31.7119 17.4513 31.5929 17.6313L26.792 24.8313C26.701 24.9713 26.557 25.0613 26.394 25.0913C26.361 25.1013 26.327 25.1013 26.293 25.1013C26.163 25.1013 26.036 25.0613 25.933 24.9813L23.532 23.1813C23.267 22.9813 23.213 22.6013 23.412 22.3413Z" fill="#1ECE7A"/>
<mask id="mask0" mask-type="alpha" maskUnits="userSpaceOnUse" x="9" y="9" width="37" height="37">
<path fill-rule="evenodd" clip-rule="evenodd" d="M36.7349 13.4914L27.733 9.5514C27.58 9.4814 27.406 9.4814 27.253 9.5514L18.251 13.4914C18.033 13.5914 17.891 13.8014 17.891 14.0414V23.4613C17.894 25.5813 18.912 27.5613 20.628 28.8013L26.849 33.2912C27.233 33.5712 27.753 33.5712 28.137 33.2912L34.3589 28.8013C36.0739 27.5613 37.0919 25.5813 37.0949 23.4613V14.0414C37.0949 13.8014 36.9539 13.5914 36.7349 13.4914ZM35.8949 23.4613C35.8919 25.1913 35.0599 26.8213 33.6559 27.8313L27.493 32.2812L21.33 27.8313C19.926 26.8213 19.094 25.1913 19.091 23.4613V14.4314L27.493 10.7514L35.8949 14.4314V23.4613ZM27.253 12.1714L20.652 15.0614C20.433 15.1614 20.292 15.3714 20.292 15.6114V23.4613C20.294 24.8113 20.941 26.0713 22.032 26.8613L27.142 30.5413C27.352 30.7013 27.635 30.7013 27.845 30.5413L32.9549 26.8613C34.0459 26.0713 34.6929 24.8113 34.6949 23.4613V15.6114C34.6949 15.3714 34.5539 15.1614 34.3349 15.0614L27.734 12.1714C27.581 12.1014 27.407 12.1014 27.253 12.1714ZM33.4949 16.0014V23.4613C33.4929 24.4213 33.0309 25.3213 32.2529 25.8913L27.494 29.3213L22.735 25.8913C21.956 25.3213 21.494 24.4213 21.492 23.4613V16.0014L27.494 13.3814L33.4949 16.0014ZM13.1641 26.3913L14.4621 29.4213C15.473 28.7513 16.804 28.8213 17.741 29.5913C18.751 30.5213 19.913 31.2613 21.177 31.7913C21.972 32.0813 22.667 32.5813 23.177 33.2512C24.047 34.3812 24.511 35.7612 24.493 37.1812V38.3012C25.156 38.3012 25.693 38.8412 25.693 39.5012V44.3012C25.693 44.9612 25.156 45.5012 24.493 45.5012H17.891C17.228 45.5012 16.691 44.9612 16.691 44.3012V39.5012C16.692 39.2012 16.808 38.9012 17.016 38.6812L13.3181 34.9912C12.7741 34.4412 12.3321 33.8112 12.0151 33.1012L9.66309 27.9313C9.38709 27.3113 9.46509 26.5813 9.86909 26.0313C10.2721 25.4813 10.9401 25.1813 11.6191 25.2613C12.2991 25.3313 12.8871 25.7613 13.1641 26.3913ZM17.891 44.3012H24.493V39.5012H17.891V44.3012ZM23.292 37.1812C23.311 36.0312 22.94 34.9112 22.24 34.0012C21.873 33.5112 21.372 33.1412 20.797 32.9312C19.387 32.3612 18.09 31.5413 16.968 30.5113C16.4071 30.0513 15.6011 30.0313 15.0251 30.4813C15.2411 30.8013 15.4891 31.1013 15.7641 31.3813L18.506 34.1212C18.662 34.2712 18.724 34.4912 18.67 34.7012C18.615 34.9112 18.451 35.0812 18.241 35.1312C18.031 35.1912 17.808 35.1212 17.657 34.9712L14.9161 32.2313C14.2731 31.5813 13.7591 30.8313 13.4021 29.9913L12.0601 26.8613C11.9481 26.6013 11.6901 26.4313 11.4051 26.4313C11.1621 26.4313 10.9361 26.5513 10.8051 26.7513C10.6741 26.9613 10.6551 27.2213 10.7551 27.4413L13.1071 32.6112C13.3651 33.1812 13.7241 33.7012 14.1661 34.1412L18.33 38.3012H23.292V37.1812ZM22.693 41.3012H22.093C21.761 41.3012 21.493 41.5712 21.493 41.9012C21.493 42.2312 21.761 42.5012 22.093 42.5012H22.693C23.024 42.5012 23.293 42.2312 23.293 41.9012C23.293 41.5712 23.024 41.3012 22.693 41.3012ZM45.3239 27.9313L42.9729 33.1012C42.6549 33.8112 42.2139 34.4412 41.6699 34.9912L37.9709 38.6812C38.1789 38.9012 38.2959 39.2012 38.2959 39.5012V44.3012C38.2959 44.9612 37.7589 45.5012 37.0959 45.5012H30.495C29.832 45.5012 29.294 44.9612 29.294 44.3012V39.5012C29.294 38.8412 29.832 38.3012 30.495 38.3012V37.1812C30.476 35.7612 30.94 34.3812 31.8099 33.2512C32.3199 32.5812 33.0159 32.0713 33.8099 31.7913C35.0739 31.2613 36.2369 30.5213 37.2459 29.5913C38.1819 28.8113 39.5139 28.7413 40.5289 29.4113L41.8239 26.3913C42.0929 25.7513 42.6839 25.3113 43.3709 25.2313C44.0569 25.1513 44.7319 25.4513 45.1369 26.0113C45.5419 26.5713 45.6139 27.3013 45.3239 27.9313ZM30.495 44.3012H37.0959V39.5012H30.495V44.3012ZM31.6949 38.3012H36.6569L40.8189 34.1412C41.2609 33.7012 41.6199 33.1812 41.8779 32.6112L44.2299 27.4413C44.3299 27.2213 44.3109 26.9613 44.1799 26.7613C44.0489 26.5513 43.8229 26.4313 43.5799 26.4313C43.2949 26.4313 43.0369 26.6013 42.9249 26.8613L41.5829 29.9913C41.2259 30.8313 40.7119 31.5813 40.0689 32.2313L37.3279 34.9712C37.0919 35.1912 36.7179 35.1912 36.4859 34.9612C36.2549 34.7312 36.2519 34.3512 36.4789 34.1212L39.2209 31.3813C39.4979 31.1013 39.7469 30.8013 39.9639 30.4713C39.3859 30.0313 38.5769 30.0413 38.0169 30.5113C36.8949 31.5413 35.5979 32.3612 34.1869 32.9312C33.6139 33.1412 33.1129 33.5112 32.7469 34.0012C32.0479 34.9112 31.6769 36.0312 31.6949 37.1812V38.3012ZM32.8949 41.3012H32.2949C31.9629 41.3012 31.6949 41.5712 31.6949 41.9012C31.6949 42.2312 31.9629 42.5012 32.2949 42.5012H32.8949C33.2259 42.5012 33.4949 42.2312 33.4949 41.9012C33.4949 41.5712 33.2259 41.3012 32.8949 41.3012ZM23.412 22.3413C23.611 22.0713 23.987 22.0213 24.252 22.2213L26.145 23.6413L30.5939 16.9714C30.7129 16.7914 30.9179 16.6914 31.1319 16.7014C31.3459 16.7114 31.5369 16.8414 31.6319 17.0314C31.7269 17.2313 31.7119 17.4513 31.5929 17.6313L26.792 24.8313C26.701 24.9713 26.557 25.0613 26.394 25.0913C26.361 25.1013 26.327 25.1013 26.293 25.1013C26.163 25.1013 26.036 25.0613 25.933 24.9813L23.532 23.1813C23.267 22.9813 23.213 22.6013 23.412 22.3413Z" fill="white"/>
</mask>
<g mask="url(#mask0)">
<rect x="9.5" y="9.5" width="36" height="36" fill="#3ACF6E"/>
</g>
</svg>
