<svg width="60" height="60" viewBox="0 0 60 60" fill="none" xmlns="http://www.w3.org/2000/svg">
<circle cx="30" cy="30" r="30" fill="white"/>
<path fill-rule="evenodd" clip-rule="evenodd" d="M47.865 33.7807L47.869 33.7907L47.873 33.8007C47.957 34.0107 48 34.2407 48 34.4607V47.2207C48 47.5507 47.731 47.8207 47.4 47.8207H12.6C12.269 47.8207 12 47.5507 12 47.2207V34.4607C11.999 34.0307 12.153 33.6207 12.433 33.2907L15.384 29.8507C15.727 29.4507 16.226 29.2207 16.752 29.2207H19.2V22.0207C19.204 18.3807 22.157 15.4207 25.8 15.4207H38.179L38.909 13.0307C39.087 12.4607 39.652 12.1107 40.241 12.1907L41.585 12.4007C42.173 12.5007 42.605 13.0107 42.6 13.6007L42.568 16.1307C44.795 17.2507 46.2 19.5307 46.2 22.0207V31.7007L47.568 33.2907C47.691 33.4407 47.791 33.6007 47.865 33.7807ZM36.055 29.9207L36.92 33.4207H39.953C40.367 32.3707 40.251 31.2007 40.122 29.9707L40.113 29.8807C39.966 28.5407 39.799 27.0107 40.487 25.5707L40.074 25.5307H40.072L37.297 25.1007C37.496 26.6407 36.892 28.0107 36.307 29.3407V29.3407C36.222 29.5307 36.138 29.7307 36.055 29.9207ZM23.4 36.4207V34.0207H18.6V36.4207C18.601 37.4107 19.406 38.2207 20.4 38.2207H21.6C22.594 38.2207 23.399 37.4107 23.4 36.4207ZM41.251 29.2207H42.6V22.0207C42.603 21.2507 42.307 20.5107 41.775 19.9607L41.305 21.4907L40.845 24.4607C41.144 24.5507 41.393 24.7607 41.543 25.0407C41.719 25.3607 41.729 25.7507 41.57 26.0907C41.178 27.0807 41.068 28.1707 41.251 29.2207ZM39.663 24.2507L40.031 21.8807L39.775 21.8407L38.84 21.6907L38.473 24.0607L39.663 24.2507ZM37.283 23.9007L37.743 20.9407L37.767 19.0207H25.8C24.144 19.0207 22.802 20.3607 22.8 22.0207V29.2207H28.461L27.035 23.4507C26.877 22.8107 27.271 22.1607 27.916 22.0007L32.574 20.8507C32.875 20.7707 33.196 20.8207 33.464 20.9707C33.743 21.1407 33.945 21.4107 34.025 21.7207L35.578 28.0007C35.992 27.1407 36.17 26.1907 36.096 25.2407C36.045 24.8707 36.172 24.5007 36.437 24.2507C36.664 24.0307 36.967 23.9107 37.283 23.9007ZM29.428 33.1307L28.758 30.4207H27.105L29.428 33.1307ZM32.543 33.2207C32.557 33.2807 32.56 33.3507 32.552 33.4207H35.684L32.862 22.0107L28.2 23.1707L28.92 26.0807L30.087 25.7907C30.296 25.7307 30.518 25.8007 30.669 25.9507C30.819 26.1107 30.874 26.3307 30.813 26.5407C30.753 26.7507 30.585 26.9007 30.375 26.9507L29.208 27.2407L29.497 28.4107L30.663 28.1207C30.983 28.0407 31.304 28.2407 31.383 28.5607C31.461 28.8807 31.269 29.2007 30.951 29.2807L29.784 29.5707L30.072 30.7407L31.239 30.4507C31.448 30.4007 31.669 30.4607 31.818 30.6107C31.967 30.7707 32.022 30.9907 31.962 31.2007C31.902 31.4007 31.736 31.5607 31.528 31.6107L30.36 31.9007L30.648 33.0707L31.816 32.7807C31.97 32.7407 32.134 32.7607 32.27 32.8507C32.406 32.9307 32.504 33.0607 32.543 33.2207ZM43.248 30.4207H41.374C41.511 31.4207 41.458 32.4407 41.218 33.4207H46.096L43.704 30.6307C43.59 30.5007 43.423 30.4207 43.248 30.4207ZM45 30.3007V22.0207C44.999 20.1807 44.063 18.4707 42.516 17.4807C42.513 17.5007 42.512 17.5107 42.51 17.5207C42.508 17.5407 42.507 17.5607 42.502 17.5807L42.159 18.7007C43.197 19.4907 43.804 20.7207 43.8 22.0207V29.3207C44.115 29.4207 44.397 29.6007 44.615 29.8507L45 30.3007ZM41.4 13.5907L40.057 13.3807L38.995 16.8607L38.975 18.4107L38.976 18.4207L38.975 18.4307L38.949 20.4907L39.784 20.6207L40.292 20.7007L41.354 17.2307V17.2207L41.4 13.5907ZM25.8 16.6207C22.819 16.6207 20.403 19.0407 20.4 22.0207V32.8207H21.6V22.0207C21.603 19.7007 23.482 17.8207 25.8 17.8207H37.782L37.795 16.8407C37.799 16.7707 37.811 16.6907 37.83 16.6207H25.8ZM13.344 34.0707C13.251 34.1807 13.2 34.3207 13.2 34.4607V46.6207H28.8V34.4607C28.8 34.3907 28.785 34.3107 28.757 34.2407C28.73 34.1807 28.694 34.1207 28.649 34.0707L25.704 30.6307C25.59 30.5007 25.423 30.4207 25.248 30.4207H22.8V32.8207H23.4C24.062 32.8207 24.599 33.3607 24.6 34.0207V36.4207C24.598 38.0807 23.256 39.4207 21.6 39.4207H20.4C18.744 39.4207 17.402 38.0807 17.4 36.4207V34.0207C17.401 33.3607 17.938 32.8207 18.6 32.8207H19.2V30.4207H16.752C16.576 30.4207 16.409 30.5007 16.294 30.6307L13.344 34.0707ZM30 34.6207V46.6207H46.8V34.6207H30ZM30.369 24.2507C30.405 24.0107 30.582 23.8107 30.818 23.7507C31.14 23.6707 31.465 23.8707 31.545 24.1907C31.603 24.4307 31.514 24.6707 31.319 24.8207C31.123 24.9607 30.86 24.9707 30.653 24.8507C30.445 24.7207 30.333 24.4907 30.369 24.2507ZM33 35.8207H31.8C31.469 35.8207 31.2 36.0907 31.2 36.4207C31.2 36.7507 31.469 37.0207 31.8 37.0207H33C33.332 37.0207 33.6 36.7507 33.6 36.4207C33.6 36.0907 33.332 35.8207 33 35.8207ZM35.4 35.8207H45C45.331 35.8207 45.6 36.0907 45.6 36.4207C45.6 36.7507 45.331 37.0207 45 37.0207H35.4C35.068 37.0207 34.8 36.7507 34.8 36.4207C34.8 36.0907 35.068 35.8207 35.4 35.8207Z" fill="#1C57C9"/>
<mask id="mask0" mask-type="alpha" maskUnits="userSpaceOnUse" x="12" y="12" width="36" height="36">
<path fill-rule="evenodd" clip-rule="evenodd" d="M47.865 33.7807L47.869 33.7907L47.873 33.8007C47.957 34.0107 48 34.2407 48 34.4607V47.2207C48 47.5507 47.731 47.8207 47.4 47.8207H12.6C12.269 47.8207 12 47.5507 12 47.2207V34.4607C11.999 34.0307 12.153 33.6207 12.433 33.2907L15.384 29.8507C15.727 29.4507 16.226 29.2207 16.752 29.2207H19.2V22.0207C19.204 18.3807 22.157 15.4207 25.8 15.4207H38.179L38.909 13.0307C39.087 12.4607 39.652 12.1107 40.241 12.1907L41.585 12.4007C42.173 12.5007 42.605 13.0107 42.6 13.6007L42.568 16.1307C44.795 17.2507 46.2 19.5307 46.2 22.0207V31.7007L47.568 33.2907C47.691 33.4407 47.791 33.6007 47.865 33.7807ZM36.055 29.9207L36.92 33.4207H39.953C40.367 32.3707 40.251 31.2007 40.122 29.9707L40.113 29.8807C39.966 28.5407 39.799 27.0107 40.487 25.5707L40.074 25.5307H40.072L37.297 25.1007C37.496 26.6407 36.892 28.0107 36.307 29.3407V29.3407C36.222 29.5307 36.138 29.7307 36.055 29.9207ZM23.4 36.4207V34.0207H18.6V36.4207C18.601 37.4107 19.406 38.2207 20.4 38.2207H21.6C22.594 38.2207 23.399 37.4107 23.4 36.4207ZM41.251 29.2207H42.6V22.0207C42.603 21.2507 42.307 20.5107 41.775 19.9607L41.305 21.4907L40.845 24.4607C41.144 24.5507 41.393 24.7607 41.543 25.0407C41.719 25.3607 41.729 25.7507 41.57 26.0907C41.178 27.0807 41.068 28.1707 41.251 29.2207ZM39.663 24.2507L40.031 21.8807L39.775 21.8407L38.84 21.6907L38.473 24.0607L39.663 24.2507ZM37.283 23.9007L37.743 20.9407L37.767 19.0207H25.8C24.144 19.0207 22.802 20.3607 22.8 22.0207V29.2207H28.461L27.035 23.4507C26.877 22.8107 27.271 22.1607 27.916 22.0007L32.574 20.8507C32.875 20.7707 33.196 20.8207 33.464 20.9707C33.743 21.1407 33.945 21.4107 34.025 21.7207L35.578 28.0007C35.992 27.1407 36.17 26.1907 36.096 25.2407C36.045 24.8707 36.172 24.5007 36.437 24.2507C36.664 24.0307 36.967 23.9107 37.283 23.9007ZM29.428 33.1307L28.758 30.4207H27.105L29.428 33.1307ZM32.543 33.2207C32.557 33.2807 32.56 33.3507 32.552 33.4207H35.684L32.862 22.0107L28.2 23.1707L28.92 26.0807L30.087 25.7907C30.296 25.7307 30.518 25.8007 30.669 25.9507C30.819 26.1107 30.874 26.3307 30.813 26.5407C30.753 26.7507 30.585 26.9007 30.375 26.9507L29.208 27.2407L29.497 28.4107L30.663 28.1207C30.983 28.0407 31.304 28.2407 31.383 28.5607C31.461 28.8807 31.269 29.2007 30.951 29.2807L29.784 29.5707L30.072 30.7407L31.239 30.4507C31.448 30.4007 31.669 30.4607 31.818 30.6107C31.967 30.7707 32.022 30.9907 31.962 31.2007C31.902 31.4007 31.736 31.5607 31.528 31.6107L30.36 31.9007L30.648 33.0707L31.816 32.7807C31.97 32.7407 32.134 32.7607 32.27 32.8507C32.406 32.9307 32.504 33.0607 32.543 33.2207ZM43.248 30.4207H41.374C41.511 31.4207 41.458 32.4407 41.218 33.4207H46.096L43.704 30.6307C43.59 30.5007 43.423 30.4207 43.248 30.4207ZM45 30.3007V22.0207C44.999 20.1807 44.063 18.4707 42.516 17.4807C42.513 17.5007 42.512 17.5107 42.51 17.5207C42.508 17.5407 42.507 17.5607 42.502 17.5807L42.159 18.7007C43.197 19.4907 43.804 20.7207 43.8 22.0207V29.3207C44.115 29.4207 44.397 29.6007 44.615 29.8507L45 30.3007ZM41.4 13.5907L40.057 13.3807L38.995 16.8607L38.975 18.4107L38.976 18.4207L38.975 18.4307L38.949 20.4907L39.784 20.6207L40.292 20.7007L41.354 17.2307V17.2207L41.4 13.5907ZM25.8 16.6207C22.819 16.6207 20.403 19.0407 20.4 22.0207V32.8207H21.6V22.0207C21.603 19.7007 23.482 17.8207 25.8 17.8207H37.782L37.795 16.8407C37.799 16.7707 37.811 16.6907 37.83 16.6207H25.8ZM13.344 34.0707C13.251 34.1807 13.2 34.3207 13.2 34.4607V46.6207H28.8V34.4607C28.8 34.3907 28.785 34.3107 28.757 34.2407C28.73 34.1807 28.694 34.1207 28.649 34.0707L25.704 30.6307C25.59 30.5007 25.423 30.4207 25.248 30.4207H22.8V32.8207H23.4C24.062 32.8207 24.599 33.3607 24.6 34.0207V36.4207C24.598 38.0807 23.256 39.4207 21.6 39.4207H20.4C18.744 39.4207 17.402 38.0807 17.4 36.4207V34.0207C17.401 33.3607 17.938 32.8207 18.6 32.8207H19.2V30.4207H16.752C16.576 30.4207 16.409 30.5007 16.294 30.6307L13.344 34.0707ZM30 34.6207V46.6207H46.8V34.6207H30ZM30.369 24.2507C30.405 24.0107 30.582 23.8107 30.818 23.7507C31.14 23.6707 31.465 23.8707 31.545 24.1907C31.603 24.4307 31.514 24.6707 31.319 24.8207C31.123 24.9607 30.86 24.9707 30.653 24.8507C30.445 24.7207 30.333 24.4907 30.369 24.2507ZM33 35.8207H31.8C31.469 35.8207 31.2 36.0907 31.2 36.4207C31.2 36.7507 31.469 37.0207 31.8 37.0207H33C33.332 37.0207 33.6 36.7507 33.6 36.4207C33.6 36.0907 33.332 35.8207 33 35.8207ZM35.4 35.8207H45C45.331 35.8207 45.6 36.0907 45.6 36.4207C45.6 36.7507 45.331 37.0207 45 37.0207H35.4C35.068 37.0207 34.8 36.7507 34.8 36.4207C34.8 36.0907 35.068 35.8207 35.4 35.8207Z" fill="white"/>
</mask>
<g mask="url(#mask0)">
<rect x="12" y="12" width="36" height="36" fill="#2053D1"/>
</g>
</svg>
