<svg width="60" height="60" viewBox="0 0 60 60" fill="none" xmlns="http://www.w3.org/2000/svg">
<circle cx="30" cy="30" r="30" fill="white"/>
<path fill-rule="evenodd" clip-rule="evenodd" d="M34.8667 12.66C34.5917 12.38 34.1467 12.38 33.8727 12.66L32.8777 13.65C32.6037 13.93 32.6037 14.37 32.8777 14.65C33.0157 14.78 33.1957 14.85 33.3747 14.85C33.5547 14.85 33.7347 14.78 33.8727 14.65L34.8667 13.65C35.1407 13.38 35.1417 12.93 34.8667 12.66ZM39.8378 12.66C40.1128 12.38 40.5578 12.38 40.8328 12.66C41.1078 12.93 41.1078 13.38 40.8328 13.65C40.5578 13.93 40.1128 13.93 39.8378 13.65C39.5638 13.38 39.5638 12.93 39.8378 12.66ZM45.8048 13.65C45.5298 13.38 45.0848 13.38 44.8098 13.65C44.5358 13.93 44.5358 14.37 44.8098 14.65C45.0848 14.92 45.5298 14.92 45.8048 14.65C46.0788 14.37 46.0788 13.93 45.8048 13.65ZM47.7937 17.63C47.5187 17.35 47.0737 17.35 46.7987 17.63C46.5247 17.9 46.5247 18.35 46.7987 18.62C47.0737 18.9 47.5187 18.9 47.7937 18.62C48.0687 18.35 48.0687 17.9 47.7937 17.63ZM16.2168 43.33C15.9418 43.06 15.4968 43.06 15.2218 43.33C14.9478 43.61 14.9478 44.05 15.2218 44.33C15.4968 44.6 15.9418 44.6 16.2168 44.33C16.4908 44.05 16.4908 43.61 16.2168 43.33ZM20.9397 37.52C21.2107 37.24 21.6557 37.24 21.9337 37.51C22.2117 37.78 22.2167 38.23 21.9457 38.5L18.2117 42.33C18.0737 42.47 17.8907 42.54 17.7077 42.54C17.5307 42.54 17.3537 42.48 17.2167 42.34C16.9397 42.07 16.9337 41.63 17.2047 41.35L20.9397 37.52ZM44.8107 28.57L42.3298 26.09L42.3187 26.08L39.3468 23.1L39.3357 23.09L36.3638 20.12L36.3538 20.11L33.3808 17.14L33.3698 17.13L30.8887 14.65C30.7577 14.51 30.5787 14.44 30.3917 14.44C30.2057 14.44 30.0268 14.51 29.8948 14.65L21.9408 22.6L20.9448 23.6C19.5748 24.97 19.5748 27.2 20.9458 28.57L22.9348 30.56C23.0678 30.69 23.1407 30.87 23.1407 31.05C23.1407 31.24 23.0678 31.42 22.9348 31.55L21.9537 32.53L13.4358 40.16H13.4348C13.3628 40.22 13.2968 40.29 13.2338 40.35C11.5887 41.99 11.5887 44.67 13.2338 46.32C14.0287 47.11 15.0888 47.55 16.2168 47.55C17.3448 47.55 18.4038 47.11 19.1997 46.32C19.2637 46.25 19.3268 46.18 19.3928 46.11H19.3938H19.3948L26.9288 37.5L27.9067 36.52C28.1807 36.25 28.6268 36.25 28.9008 36.52L30.8897 38.51C31.5537 39.17 32.4357 39.54 33.3747 39.54C34.3137 39.54 35.1967 39.17 35.8607 38.51L36.8557 37.52L44.8098 29.56C45.0848 29.29 45.0847 28.84 44.8107 28.57ZM18.3367 45.18C18.2907 45.23 18.2477 45.28 18.2057 45.32C17.6757 45.85 16.9687 46.14 16.2167 46.14C15.4637 46.14 14.7577 45.85 14.2277 45.32C13.1317 44.22 13.1317 42.44 14.2277 41.34C14.2717 41.3 14.3177 41.26 14.3697 41.21H14.3717H14.3737L22.4107 34.01L25.4527 37.05L18.3367 45.18ZM34.8667 37.52C34.4677 37.91 33.9387 38.13 33.3757 38.13C32.8117 38.13 32.2827 37.91 31.8837 37.52L29.8947 35.53C29.0727 34.71 27.7347 34.71 26.9117 35.53L26.4147 36.02L23.4317 33.04L23.9287 32.54C24.3277 32.15 24.5467 31.62 24.5467 31.05C24.5467 30.49 24.3267 29.96 23.9287 29.56L21.9397 27.57C21.1177 26.75 21.1177 25.41 21.9397 24.59L22.4377 24.09L35.3637 37.02L34.8667 37.52ZM36.3588 36.02L23.4318 23.1L30.3918 16.14L31.8838 17.63L28.4038 21.11C28.1288 21.38 28.1288 21.83 28.4038 22.1C28.5408 22.24 28.7208 22.31 28.9008 22.31C29.0808 22.31 29.2608 22.24 29.3978 22.1L32.8778 18.62L34.8668 20.61L31.3868 24.09C31.1118 24.37 31.1118 24.81 31.3868 25.09C31.5238 25.22 31.7038 25.29 31.8838 25.29C32.0638 25.29 32.2438 25.22 32.3808 25.09L35.8618 21.61L37.8498 23.6L34.3698 27.08C34.0948 27.35 34.0948 27.8 34.3698 28.07C34.5068 28.21 34.6868 28.28 34.8668 28.28C35.0468 28.28 35.2268 28.21 35.3638 28.07L38.8438 24.59L40.8328 26.58L37.3528 30.06C37.0778 30.33 37.0778 30.78 37.3528 31.05C37.4898 31.19 37.6698 31.26 37.8498 31.26C38.0298 31.26 38.2098 31.19 38.3468 31.05L41.8278 27.57L43.3188 29.06L36.3588 36.02ZM37.8498 14.65C38.1248 14.37 38.5698 14.37 38.8448 14.65C39.1188 14.92 39.1188 15.37 38.8448 15.64L36.8558 17.63C36.7188 17.77 36.5388 17.84 36.3588 17.84C36.1788 17.84 35.9988 17.77 35.8618 17.63C35.5868 17.35 35.5868 16.91 35.8618 16.63L37.8498 14.65ZM42.8217 15.64C43.0957 15.37 43.5407 15.37 43.8157 15.64C44.0907 15.92 44.0907 16.36 43.8157 16.63L39.8377 20.61C39.7007 20.75 39.5207 20.82 39.3407 20.82C39.1607 20.82 38.9807 20.75 38.8437 20.61C38.5697 20.34 38.5697 19.89 38.8437 19.62L42.8217 15.64ZM45.8048 19.62C45.5308 19.34 45.0858 19.34 44.8108 19.62L41.8278 22.6C41.5528 22.88 41.5528 23.32 41.8278 23.6C41.9648 23.73 42.1448 23.8 42.3248 23.8C42.5048 23.8 42.6848 23.73 42.8218 23.6L45.8048 20.61C46.0798 20.34 46.0798 19.89 45.8048 19.62ZM45.8047 24.59C46.0797 24.32 46.5247 24.32 46.7987 24.59C47.0737 24.86 47.0737 25.31 46.7987 25.58L45.8047 26.58C45.6677 26.72 45.4877 26.78 45.3077 26.78C45.1277 26.78 44.9477 26.72 44.8107 26.58C44.5357 26.3 44.5357 25.86 44.8107 25.58L45.8047 24.59Z" fill="#1C57C9"/>
<mask id="mask0" mask-type="alpha" maskUnits="userSpaceOnUse" x="12" y="12" width="36" height="36">
<path fill-rule="evenodd" clip-rule="evenodd" d="M34.8667 12.66C34.5917 12.38 34.1467 12.38 33.8727 12.66L32.8777 13.65C32.6037 13.93 32.6037 14.37 32.8777 14.65C33.0157 14.78 33.1957 14.85 33.3747 14.85C33.5547 14.85 33.7347 14.78 33.8727 14.65L34.8667 13.65C35.1407 13.38 35.1417 12.93 34.8667 12.66ZM39.8378 12.66C40.1128 12.38 40.5578 12.38 40.8328 12.66C41.1078 12.93 41.1078 13.38 40.8328 13.65C40.5578 13.93 40.1128 13.93 39.8378 13.65C39.5638 13.38 39.5638 12.93 39.8378 12.66ZM45.8048 13.65C45.5298 13.38 45.0848 13.38 44.8098 13.65C44.5358 13.93 44.5358 14.37 44.8098 14.65C45.0848 14.92 45.5298 14.92 45.8048 14.65C46.0788 14.37 46.0788 13.93 45.8048 13.65ZM47.7937 17.63C47.5187 17.35 47.0737 17.35 46.7987 17.63C46.5247 17.9 46.5247 18.35 46.7987 18.62C47.0737 18.9 47.5187 18.9 47.7937 18.62C48.0687 18.35 48.0687 17.9 47.7937 17.63ZM16.2168 43.33C15.9418 43.06 15.4968 43.06 15.2218 43.33C14.9478 43.61 14.9478 44.05 15.2218 44.33C15.4968 44.6 15.9418 44.6 16.2168 44.33C16.4908 44.05 16.4908 43.61 16.2168 43.33ZM20.9397 37.52C21.2107 37.24 21.6557 37.24 21.9337 37.51C22.2117 37.78 22.2167 38.23 21.9457 38.5L18.2117 42.33C18.0737 42.47 17.8907 42.54 17.7077 42.54C17.5307 42.54 17.3537 42.48 17.2167 42.34C16.9397 42.07 16.9337 41.63 17.2047 41.35L20.9397 37.52ZM44.8107 28.57L42.3298 26.09L42.3187 26.08L39.3468 23.1L39.3357 23.09L36.3638 20.12L36.3538 20.11L33.3808 17.14L33.3698 17.13L30.8887 14.65C30.7577 14.51 30.5787 14.44 30.3917 14.44C30.2057 14.44 30.0268 14.51 29.8948 14.65L21.9408 22.6L20.9448 23.6C19.5748 24.97 19.5748 27.2 20.9458 28.57L22.9348 30.56C23.0678 30.69 23.1407 30.87 23.1407 31.05C23.1407 31.24 23.0678 31.42 22.9348 31.55L21.9537 32.53L13.4358 40.16H13.4348C13.3628 40.22 13.2968 40.29 13.2338 40.35C11.5887 41.99 11.5887 44.67 13.2338 46.32C14.0287 47.11 15.0888 47.55 16.2168 47.55C17.3448 47.55 18.4038 47.11 19.1997 46.32C19.2637 46.25 19.3268 46.18 19.3928 46.11H19.3938H19.3948L26.9288 37.5L27.9067 36.52C28.1807 36.25 28.6268 36.25 28.9008 36.52L30.8897 38.51C31.5537 39.17 32.4357 39.54 33.3747 39.54C34.3137 39.54 35.1967 39.17 35.8607 38.51L36.8557 37.52L44.8098 29.56C45.0848 29.29 45.0847 28.84 44.8107 28.57ZM18.3367 45.18C18.2907 45.23 18.2477 45.28 18.2057 45.32C17.6757 45.85 16.9687 46.14 16.2167 46.14C15.4637 46.14 14.7577 45.85 14.2277 45.32C13.1317 44.22 13.1317 42.44 14.2277 41.34C14.2717 41.3 14.3177 41.26 14.3697 41.21H14.3717H14.3737L22.4107 34.01L25.4527 37.05L18.3367 45.18ZM34.8667 37.52C34.4677 37.91 33.9387 38.13 33.3757 38.13C32.8117 38.13 32.2827 37.91 31.8837 37.52L29.8947 35.53C29.0727 34.71 27.7347 34.71 26.9117 35.53L26.4147 36.02L23.4317 33.04L23.9287 32.54C24.3277 32.15 24.5467 31.62 24.5467 31.05C24.5467 30.49 24.3267 29.96 23.9287 29.56L21.9397 27.57C21.1177 26.75 21.1177 25.41 21.9397 24.59L22.4377 24.09L35.3637 37.02L34.8667 37.52ZM36.3588 36.02L23.4318 23.1L30.3918 16.14L31.8838 17.63L28.4038 21.11C28.1288 21.38 28.1288 21.83 28.4038 22.1C28.5408 22.24 28.7208 22.31 28.9008 22.31C29.0808 22.31 29.2608 22.24 29.3978 22.1L32.8778 18.62L34.8668 20.61L31.3868 24.09C31.1118 24.37 31.1118 24.81 31.3868 25.09C31.5238 25.22 31.7038 25.29 31.8838 25.29C32.0638 25.29 32.2438 25.22 32.3808 25.09L35.8618 21.61L37.8498 23.6L34.3698 27.08C34.0948 27.35 34.0948 27.8 34.3698 28.07C34.5068 28.21 34.6868 28.28 34.8668 28.28C35.0468 28.28 35.2268 28.21 35.3638 28.07L38.8438 24.59L40.8328 26.58L37.3528 30.06C37.0778 30.33 37.0778 30.78 37.3528 31.05C37.4898 31.19 37.6698 31.26 37.8498 31.26C38.0298 31.26 38.2098 31.19 38.3468 31.05L41.8278 27.57L43.3188 29.06L36.3588 36.02ZM37.8498 14.65C38.1248 14.37 38.5698 14.37 38.8448 14.65C39.1188 14.92 39.1188 15.37 38.8448 15.64L36.8558 17.63C36.7188 17.77 36.5388 17.84 36.3588 17.84C36.1788 17.84 35.9988 17.77 35.8618 17.63C35.5868 17.35 35.5868 16.91 35.8618 16.63L37.8498 14.65ZM42.8217 15.64C43.0957 15.37 43.5407 15.37 43.8157 15.64C44.0907 15.92 44.0907 16.36 43.8157 16.63L39.8377 20.61C39.7007 20.75 39.5207 20.82 39.3407 20.82C39.1607 20.82 38.9807 20.75 38.8437 20.61C38.5697 20.34 38.5697 19.89 38.8437 19.62L42.8217 15.64ZM45.8048 19.62C45.5308 19.34 45.0858 19.34 44.8108 19.62L41.8278 22.6C41.5528 22.88 41.5528 23.32 41.8278 23.6C41.9648 23.73 42.1448 23.8 42.3248 23.8C42.5048 23.8 42.6848 23.73 42.8218 23.6L45.8048 20.61C46.0798 20.34 46.0798 19.89 45.8048 19.62ZM45.8047 24.59C46.0797 24.32 46.5247 24.32 46.7987 24.59C47.0737 24.86 47.0737 25.31 46.7987 25.58L45.8047 26.58C45.6677 26.72 45.4877 26.78 45.3077 26.78C45.1277 26.78 44.9477 26.72 44.8107 26.58C44.5357 26.3 44.5357 25.86 44.8107 25.58L45.8047 24.59Z" fill="white"/>
</mask>
<g mask="url(#mask0)">
<rect x="12" y="12" width="36" height="36" fill="#2053D1"/>
</g>
</svg>
